<svg xmlns="http://www.w3.org/2000/svg" viewBox="0 0 163.5 163.5"><defs><style>.cls-1{fill:#f3c53c;}</style></defs><title>Asset 20</title><g id="Layer_2" data-name="Layer 2"><g id="Layer_1-2" data-name="Layer 1"><circle class="cls-1" cx="81.75" cy="81.75" r="81.75"/><path d="M106.78,39.76c2.23-2.28,4.58-2.67,7.94-.3L113,41.26c-1.79-1.12-3.08-1-4.43.37-2.06,2.1-2,4.1,1.59,7.58l.53.51a4.29,4.29,0,0,1,1-4.71c2.77-2.83,7.46-1.86,11.81,2.41,4,3.87,4.86,8.24,2.26,10.89-1.42,1.45-2.85,1.71-5.51,1l1.93,1.89-1.67,1.7-12-11.76C103.86,46.6,103.57,43,106.78,39.76Zm16.66,17c1.91-2,1.29-4.47-1.91-7.6s-6.2-4-8-2.22-1.14,4.67,1.73,7.48C118.75,57.81,121.63,58.62,123.44,56.77Z"/><path d="M109.55,59.59c-3.2-2.94-5.48-3-7.26-1.14a4,4,0,0,0-.22,5.32l-1.76,1.8c-2.36-3.24-2.32-6.59.11-9.06,3-3.05,7.38-2.43,11.5,1.62,4.38,4.29,5.21,9,2.18,12.08-2.74,2.8-6.46,2.49-12.21-2.8Zm2.66,8.64c1.69-1.73,1.34-4.52-.91-6.92l-5.83,6C108.44,69.78,110.62,69.85,112.21,68.23Z"/><path d="M90.18,67c2.72-2.77,5.51-2.88,8.89.08l-1.71,1.75c-2-1.69-3.58-1.65-5.37.18-1.54,1.57-1.7,3.28-.42,4.53,1,1,1.84.87,4-.29l2.68-1.49a4.31,4.31,0,0,1,5.65.69,5.41,5.41,0,0,1,.11,8.14c-2.4,2.45-5.3,2.45-8.07,0l1.71-1.75c1.55,1.37,3,1.28,4.55-.29,1.35-1.38,1.48-2.91.33-4-.92-.91-1.59-.87-3.61.23L96.53,76c-2.78,1.54-4.59,1.38-6.42-.4C87.49,73,87.51,69.68,90.18,67Z"/><path d="M93.52,86.8,85,78.47c-.73-.71-1.32-.7-2.1.1l-.61.62L80.58,77.5c1.07-1.4,1-1.37,1.22-1.6,1.4-1.42,3-1.22,4.86.64L95.29,85l1.42-1.45,1.83,1.79-1.42,1.45,3.65,3.58L99,92.16l-3.65-3.58-1.71,1.75-1.83-1.79Z"/><path d="M72.35,85.89l2,2c-.87-2.71-.64-4.15.93-5.75,2.16-2.2,5-2.06,7.5.44l9.4,9.21-1.76,1.8-8.68-8.5c-1.88-1.84-3.54-2.09-4.88-.72-1.76,1.8-1.22,4.59,1.43,7.19l7.2,7.06-1.76,1.8L70.69,87.59Z"/><path d="M74.83,105.62c1.57-1.6,1.22-4.2-.8-6.18L66.4,92l1.76-1.8L81.24,103l-1.67,1.7-2.23-2.18c.94,2.79.84,4.35-.39,5.6a2.2,2.2,0,0,1-.54.4l-2.25-2.21Z"/><path d="M66.47,103.55c-3.2-2.94-5.48-3-7.26-1.14a4,4,0,0,0-.22,5.32l-1.76,1.8c-2.36-3.24-2.32-6.59.11-9.06,3-3.05,7.38-2.43,11.5,1.62,4.38,4.29,5.21,9,2.18,12.08-2.74,2.8-6.46,2.49-12.21-2.8Zm2.66,8.64c1.69-1.73,1.34-4.52-.91-6.92l-5.83,6C65.36,113.73,67.54,113.81,69.13,112.18Z"/><path d="M46.07,112.71c3.1,3.33,4.3,6.37,3.67,10.21l-.54,3.25c-.68,4.14-.2,5,1.43,6.59,2,1.94,4.38,2.08,6.07.36,1.86-1.9,1.57-4.2-1.48-7.19l1.76-1.8c4.28,4.19,4.51,8,1.52,11-2.72,2.78-6.66,2.54-9.81-.54-2.37-2.33-3.11-4.13-2.08-9.58l.47-2.48c.45-2.41.13-4.48-.93-5.81l-7.69,7.85-2.07-2Z"/></g></g></svg>