<svg xmlns="http://www.w3.org/2000/svg" viewBox="0 0 163.5 163.5"><defs><style>.cls-1{fill:#f3c53c;}</style></defs><title>Asset 18</title><g id="Layer_2" data-name="Layer 2"><g id="Layer_1-2" data-name="Layer 1"><circle class="cls-1" cx="81.75" cy="81.75" r="81.75"/><path d="M53.48,129.32c-2.55,1.92-4.93,2-7.9-.89l2-1.52c1.61,1.38,2.89,1.46,4.43.3,2.35-1.77,2.56-3.76-.43-7.73l-.44-.59a4.29,4.29,0,0,1-1.74,4.5c-3.16,2.38-7.65.72-11.31-4.15-3.33-4.42-3.57-8.88-.61-11.11,1.62-1.22,3.08-1.27,5.6-.18l-1.62-2.15,1.9-1.43,10.1,13.43C57.4,123,57.15,126.56,53.48,129.32ZM39.56,110c-2.18,1.64-1.95,4.22.75,7.8s5.53,4.91,7.54,3.39,1.83-4.44-.59-7.66C44.36,109.68,41.63,108.45,39.56,110Z"/><path d="M53.72,109.29c2.72,3.38,5,3.75,7,2.21a4,4,0,0,0,1-5.23l2-1.52c1.85,3.56,1.31,6.86-1.46,8.94-3.41,2.57-7.66,1.29-11.13-3.32-3.68-4.89-3.81-9.66-.34-12.27,3.13-2.36,6.76-1.49,11.65,4.59Zm-1.34-8.94c-1.93,1.45-2,4.27-.14,7l6.66-5C56.35,99.39,54.2,99,52.39,100.35Z"/><path d="M74,104.92c-3.1,2.34-5.88,2-8.77-1.41l2-1.47c1.7,2,3.29,2.16,5.34.63,1.76-1.33,2.17-3,1.1-4.42-.82-1.09-1.69-1.14-4-.31L66.76,99a4.31,4.31,0,0,1-5.48-1.52,5.41,5.41,0,0,1,1.11-8.07c2.74-2.06,5.61-1.63,8,1.18l-2,1.47c-1.33-1.59-2.78-1.72-4.54-.39-1.54,1.16-1.9,2.66-.93,3.94.78,1,1.44,1.1,3.61.31l2.5-.92c3-1.1,4.75-.68,6.28,1.36C77.55,99.29,77,102.62,74,104.92Z"/><path d="M73.64,84.8l7.16,9.51c.61.81,1.2.89,2.09.22l.7-.53L85,95.93c-1.27,1.22-1.19,1.21-1.45,1.4-1.59,1.2-3.11.76-4.71-1.36l-7.26-9.65L70,87.53l-1.54-2,1.62-1.22L67,80.19l2-1.52,3.07,4.08,2-1.47,1.54,2Z"/><path d="M94.44,88.86l-1.7-2.27c.45,2.81,0,4.2-1.78,5.55-2.46,1.85-5.21,1.29-7.35-1.56L75.68,80.06l2-1.52L85,88.25c1.58,2.1,3.18,2.6,4.72,1.44,2-1.52,1.89-4.36-.34-7.32l-6.06-8.06,2-1.51,11,14.63Z"/><path d="M94.94,69c-1.79,1.35-1.83,4-.13,6.23l6.42,8.53-2,1.52-11-14.63,1.9-1.43L92,71.7c-.52-2.9-.18-4.42,1.22-5.48a2.2,2.2,0,0,1,.59-.32l1.89,2.52Z"/><path d="M102.9,72.29c2.72,3.38,5,3.75,7,2.21a4,4,0,0,0,1-5.23l2-1.52c1.85,3.56,1.31,6.86-1.46,8.94-3.41,2.57-7.66,1.29-11.13-3.32-3.68-4.89-3.81-9.66-.34-12.27,3.13-2.36,6.76-1.49,11.65,4.59Zm-1.34-8.94c-1.93,1.45-2,4.27-.14,7l6.66-5C105.52,62.38,103.38,62,101.56,63.35Z"/><path d="M130.52,62.54c-3.13,2.36-6.22,2.27-10.41-2.42l2.1-1.58c2.67,3.2,4.57,3.39,6.64,1.84s2.42-4.23.68-6.55-4-2.59-6.19-.95l-.28.21a10.31,10.31,0,0,1-.87.7l-1.6-2.13c.41-.27.85-.55,1-.7,2-1.47,2.24-3.48.73-5.5s-3.55-2.33-5.36-1c-2,1.52-2,3.44.07,6.61l-2,1.49c-3.16-4.55-2.91-7.89.31-10.31,3-2.29,6.57-1.75,8.95,1.41,1.52,2,1.82,3.93.93,5.66,2.63-.58,4.4.15,6.21,2.55C134.35,55.76,134,60,130.52,62.54Z"/></g></g></svg>