<svg xmlns="http://www.w3.org/2000/svg" viewBox="0 0 163.5 163.5"><defs><style>.cls-1{fill:#f3c53c;}</style></defs><title>Asset 22</title><g id="Layer_2" data-name="Layer 2"><g id="Layer_1-2" data-name="Layer 1"><circle class="cls-1" cx="81.75" cy="81.75" r="81.75"/><path d="M135.37,78.64c3.11.67,4.7,2.45,4.49,6.56l-2.46-.53c0-2.11-.79-3.14-2.67-3.55-2.87-.62-4.52.53-5.57,5.38l-.16.72a4.29,4.29,0,0,1,4.54-1.63c3.87.84,5.55,5.32,4.26,11.27-1.17,5.41-4.39,8.51-8,7.72-2-.43-3-1.5-3.8-4.12l-.57,2.63-2.33-.5,3.56-16.42C128,79.8,130.88,77.67,135.37,78.64Zm-5.52,23.16c2.67.58,4.47-1.29,5.42-5.67s.1-7.39-2.37-7.93-4.56,1.52-5.41,5.45C126.47,98.38,127.32,101.25,129.85,101.8Z"/><path d="M120.05,91.54c.78-4.27-.41-6.21-2.91-6.75a4,4,0,0,0-4.62,2.65l-2.46-.53c1.49-3.73,4.34-5.47,7.72-4.74,4.17.9,6,4.95,4.76,10.59-1.3,6-4.82,9.2-9.06,8.28-3.83-.83-5.55-4.14-4.14-11.82Zm-5.89,6.85c2.36.51,4.54-1.27,5.37-4.46l-8.14-1.76C110.84,96,111.94,97.92,114.16,98.4Z"/><path d="M103.5,79.08c3.8.82,5.37,3.13,4.66,7.56l-2.39-.52c.38-2.57-.51-3.91-3-4.45-2.16-.47-3.68.31-4.06,2.06-.29,1.33.24,2,2.35,3.2l2.69,1.48a4.31,4.31,0,0,1,2.43,5.15A5.41,5.41,0,0,1,99.34,98c-3.35-.73-4.9-3.17-4.33-6.81l2.39.52c-.33,2,.52,3.23,2.67,3.7,1.88.41,3.25-.3,3.59-1.87.27-1.27-.11-1.81-2.12-2.93l-2.33-1.29c-2.78-1.53-3.62-3.15-3.08-5.64C96.92,80.05,99.77,78.27,103.5,79.08Z"/><path d="M88.5,92.48,91,80.85c.21-1-.11-1.49-1.2-1.73L89,78.94l.51-2.36c1.75.17,1.69.12,2,.18,1.95.42,2.61,1.85,2,4.45L91,93l2,.43-.54,2.5-2-.43-1.08,5L86.87,100,88,95l-2.39-.52L86.1,92Z"/><path d="M78,74.09l-.6,2.77c1.83-2.18,3.17-2.75,5.36-2.28,3,.65,4.38,3.1,3.62,6.59L83.58,94l-2.46-.53,2.57-11.87c.56-2.57-.11-4.11-2-4.51-2.46-.53-4.53,1.42-5.32,5L74.24,92l-2.46-.53,3.88-17.89Z"/><path d="M62.61,86.7c2.19.47,4.2-1.2,4.8-4l2.26-10.43,2.46.53L68.26,90.71l-2.33-.5.66-3c-1.86,2.28-3.23,3-4.94,2.65a2.2,2.2,0,0,1-.63-.24l.67-3.08Z"/><path d="M59.91,78.52c.78-4.27-.41-6.21-2.91-6.75a4,4,0,0,0-4.62,2.65l-2.46-.53c1.49-3.73,4.34-5.47,7.72-4.74,4.17.9,6,4.95,4.76,10.59-1.3,6-4.82,9.2-9.06,8.28-3.83-.83-5.55-4.14-4.14-11.82ZM54,85.37c2.36.51,4.54-1.27,5.37-4.46l-8.14-1.76C50.7,83,51.79,84.89,54,85.37Z"/><path d="M29,69.59l1.27-5.85,2.46.53-1.27,5.85L40,72l-.64,3L27.07,88.24,25,87.79l3.37-15.57-2.91-.63L26.06,69Zm-.49,14.15,8.74-9.6-6.36-1.38Z"/></g></g></svg>