<svg xmlns="http://www.w3.org/2000/svg" viewBox="0 0 163.5 163.5"><defs><style>.cls-1{fill:#f3c53c;}</style></defs><title>Asset 21</title><g id="Layer_2" data-name="Layer 2"><g id="Layer_1-2" data-name="Layer 1"><circle class="cls-1" cx="81.75" cy="81.75" r="81.75"/><path d="M29.8,76.76C27,75.2,26,73,27.43,69.17l2.2,1.23c-.61,2-.17,3.24,1.51,4.18,2.57,1.43,4.47.82,6.9-3.52l.36-.64a4.29,4.29,0,0,1-4.82.23c-3.45-1.93-3.75-6.71-.78-12,2.7-4.83,6.68-6.85,9.92-5,1.77,1,2.4,2.31,2.43,5l1.32-2.35,2.08,1.16-8.2,14.66C37.17,77.79,33.81,79,29.8,76.76Zm12-20.53c-2.38-1.33-4.65-.07-6.84,3.84s-2.25,7-.05,8.27,4.8-.12,6.77-3.64C44.08,60.48,44.11,57.49,41.85,56.22Z"/><path d="M48.22,68.89c-2,3.86-1.42,6.06.81,7.31A4,4,0,0,0,54.22,75l2.2,1.23c-2.51,3.13-5.75,4-8.77,2.27C43.92,76.43,43.37,72,46.19,67c3-5.35,7.3-7.39,11.09-5.27,3.42,1.91,4.1,5.58.5,12.51Zm7.64-4.83c-2.11-1.18-4.71-.11-6.44,2.69l7.27,4.07C58.34,67.29,57.84,65.17,55.86,64.06Z"/><path d="M60.4,85.65c-3.39-1.9-4.22-4.57-2.25-8.6l2.14,1.2c-1.11,2.35-.65,3.89,1.58,5.13,1.92,1.08,3.61.78,4.49-.78.67-1.19.36-2-1.32-3.74l-2.14-2.2A4.31,4.31,0,0,1,62.08,71a5.41,5.41,0,0,1,7.83-2.24c3,1.67,3.76,4.47,2.15,7.78l-2.14-1.2c.92-1.85.45-3.24-1.48-4.32-1.68-.94-3.2-.67-4,.74-.63,1.13-.43,1.77,1.17,3.42l1.85,1.92c2.21,2.28,2.54,4.07,1.29,6.3C67,86.65,63.73,87.51,60.4,85.65Z"/><path d="M78.67,77.22,72.86,87.61c-.5.89-.33,1.46.64,2l.76.43-1.18,2.11c-1.63-.67-1.59-.61-1.86-.76-1.74-1-2-2.54-.65-4.86L76.47,76,74.7,75l1.25-2.23,1.77,1,2.49-4.46,2.2,1.23L79.92,75l2.14,1.2-1.25,2.23Z"/><path d="M83.35,97.89l1.38-2.47c-2.39,1.55-3.84,1.7-5.8.61-2.69-1.5-3.28-4.24-1.54-7.36l6.42-11.49L86,78.4,80.1,89c-1.28,2.29-1.09,4,.59,4.9,2.2,1.23,4.75,0,6.56-3.27l4.92-8.8,2.2,1.23L85.43,99Z"/><path d="M101.74,90.32c-2-1.09-4.37-.08-5.75,2.4L90.77,102l-2.2-1.23,8.94-16L99.59,86l-1.52,2.72c2.44-1.64,4-1.95,5.5-1.09a2.2,2.2,0,0,1,.53.42l-1.54,2.75Z"/><path d="M101.93,98.93c-2,3.86-1.42,6.06.81,7.31a4,4,0,0,0,5.19-1.19l2.2,1.23c-2.51,3.13-5.75,4-8.77,2.27-3.73-2.08-4.28-6.48-1.46-11.52,3-5.35,7.3-7.39,11.09-5.27,3.42,1.91,4.1,5.58.5,12.51Zm7.64-4.83c-2.11-1.18-4.71-.11-6.44,2.69l7.27,4.07C112.05,97.33,111.55,95.21,109.57,94.1Z"/><path d="M122.11,119.56l8.53-15.24L126.55,102l1.2-2.14c3.41,1.58,4.55,1.34,7-1.45l1.71,1-12,21.48Z"/></g></g></svg>