<svg xmlns="http://www.w3.org/2000/svg" viewBox="0 0 181.34 151.09"><defs><style>.cls-1{fill:#0090d0;stroke:#0090d0;stroke-miterlimit:10;}</style></defs><title>Asset 2</title><g id="Layer_2" data-name="Layer 2"><g id="Layer_1-2" data-name="Layer 1"><path class="cls-1" d="M1.21,148.5l16-16a3.7,3.7,0,0,0,3,2s-1,3,1,4l-12,12S4.21,148.5,1.21,148.5Z"/><path class="cls-1" d="M42.21,111.5v2s3-3,6-3l82-82,3,2,10-11h6v8l4,3L180.71,3,179.21.5h-37l-3,3,7,7h-5l-1.5,1.5h-3.5L134,14.25V17.5l-7.87,7.88,1.13,1.13-81,81S46.21,109.5,42.21,111.5Z"/></g></g></svg>