<svg xmlns="http://www.w3.org/2000/svg" viewBox="0 0 182.16 151.58"><defs><style>.cls-1{fill:#fff;stroke:#000;stroke-miterlimit:10;stroke-width:0.75px;}</style></defs><title>Asset 15</title><g id="Layer_2" data-name="Layer 2"><g id="Layer_1-2" data-name="Layer 1"><path class="cls-1" d="M19.44,135.51a.63.63,0,0,0-.53-.64c-1.94-.23-2.51-1.06-2.43-1.74a.1.1,0,0,0-.16-.08L.39,149c-.2.2,1.14-.07,3.76.65a35.17,35.17,0,0,1,4.47,1.49l12.47-12.26A4.07,4.07,0,0,1,19.44,135.51Z"/><path class="cls-1" d="M178.21.85,143.46.38l-4.56,4.56,5.43,6h-2.88L141,12h-3.53l-2.5,2.5-.75,2.27-9.35,9.35,2,2-82,75.73s.4,0,.8-.05a1.9,1.9,0,0,1,2.24,2.14,7.94,7.94,0,0,1-2.91,5.1l-1.75,1.24a.1.1,0,0,0,.07.19l4.32-1.13,84-78.45,2,2,11.94-11.93,3-.28v5.68l5,4.6L181.66,5.45Z"/></g></g></svg>