<svg xmlns="http://www.w3.org/2000/svg" viewBox="0 0 549.75 1062.75"><defs><style>.cls-1{fill:#fff;stroke:#000;stroke-miterlimit:10;stroke-width:0.75px;}.cls-2{font-size:22px;font-family:FoundersGrotesk-Regular, Founders Grotesk;}.cls-3{letter-spacing:0em;}.cls-4{letter-spacing:-0.01em;}.cls-5{letter-spacing:-0.01em;}.cls-6{letter-spacing:0em;}.cls-7{letter-spacing:0em;}.cls-8{letter-spacing:-0.01em;}.cls-9{letter-spacing:0em;}.cls-10{letter-spacing:-0.02em;}.cls-11{letter-spacing:-0.01em;}.cls-12{letter-spacing:0em;}.cls-13{letter-spacing:0em;}.cls-14{letter-spacing:-0.04em;}.cls-15{letter-spacing:0em;}.cls-16{letter-spacing:-0.01em;}.cls-17{letter-spacing:0.02em;}.cls-18{letter-spacing:-0.01em;}.cls-19{letter-spacing:0em;}.cls-20{letter-spacing:-0.01em;}.cls-21{letter-spacing:0.02em;}</style></defs><title>Asset 21</title><g id="Layer_2" data-name="Layer 2"><g id="Layer_1-2" data-name="Layer 1"><circle class="cls-1" cx="131.38" cy="464.38" r="131"/><circle class="cls-1" cx="418.38" cy="346.38" r="131"/><circle class="cls-1" cx="236.38" cy="931.38" r="131"/><circle class="cls-1" cx="365.38" cy="657.38" r="131"/><circle class="cls-1" cx="226.38" cy="131.38" r="131"/><text class="cls-2" transform="translate(356.62 326.62)"><tspan class="cls-3">J</tspan><tspan x="11.11" y="0">amie </tspan><tspan class="cls-4" x="57.95" y="0">f</tspan><tspan x="64.04" y="0">or </tspan><tspan class="cls-5" x="86.37" y="0">y</tspan><tspan x="96.25" y="0">our </tspan><tspan class="cls-6" x="-31.79" y="23">c</tspan><tspan x="-21.01" y="23" xml:space="preserve">ontinuous  guidan</tspan><tspan class="cls-7" x="131.98" y="23">c</tspan><tspan class="cls-8" x="142.76" y="23">e</tspan><tspan x="153.34" y="23">, </tspan><tspan x="-30.03" y="46">p</tspan><tspan class="cls-3" x="-18.46" y="46">a</tspan><tspan x="-7.81" y="46">tien</tspan><tspan class="cls-6" x="24.9" y="46">c</tspan><tspan x="35.68" y="46">e and l</tspan><tspan class="cls-9" x="91.89" y="46">ow</tspan><tspan x="117.06" y="46">-</tspan><tspan class="cls-10" x="124.63" y="46">k</tspan><tspan class="cls-11" x="134.71" y="46">e</tspan><tspan x="145.33" y="46">y </tspan><tspan x="-12.81" y="69">the</tspan><tspan class="cls-11" x="15.59" y="69">r</tspan><tspan x="22.74" y="69">a</tspan><tspan class="cls-11" x="33.5" y="69">p</tspan><tspan x="44.94" y="69">y </tspan><tspan class="cls-12" x="59.02" y="69">s</tspan><tspan class="cls-13" x="68.59" y="69">e</tspan><tspan x="79.43" y="69">ssion</tspan><tspan class="cls-12" x="124.8" y="69">s</tspan><tspan x="134.37" y="69">. </tspan></text><text class="cls-2" transform="translate(287.35 622.22)">Jud<tspan class="cls-14" x="33.57" y="0">y</tspan><tspan x="42.77" y="0">, S</tspan><tspan class="cls-15" x="62.94" y="0">t</tspan><tspan x="69.59" y="0">e</tspan><tspan class="cls-8" x="80.34" y="0">f</tspan><tspan x="86.44" y="0">ana and </tspan><tspan class="cls-15" x="-20.04" y="23">H</tspan><tspan x="-5.65" y="23">annah </tspan><tspan class="cls-8" x="52.56" y="23">f</tspan><tspan x="58.65" y="23">or helping me </tspan><tspan x="-18.27" y="46">d</tspan><tspan class="cls-6" x="-6.72" y="46">o</tspan><tspan x="4.43" y="46">cument the p</tspan><tspan class="cls-16" x="119.29" y="46">r</tspan><tspan x="126.29" y="46">oj</tspan><tspan class="cls-6" x="141.69" y="46">e</tspan><tspan x="152.51" y="46">c</tspan><tspan class="cls-17" x="163.23" y="46">t</tspan><tspan x="170.44" y="46">. </tspan><tspan x="-3.81" y="69">Zilin </tspan><tspan class="cls-8" x="36.32" y="69">f</tspan><tspan x="42.42" y="69">or helping me </tspan><tspan class="cls-6" x="18.73" y="92">co</tspan><tspan x="40.67" y="92">de this si</tspan><tspan class="cls-15" x="116.21" y="92">t</tspan><tspan class="cls-8" x="122.86" y="92">e</tspan><tspan x="133.44" y="92">.</tspan></text><text class="cls-2" transform="translate(157.38 917.22)">Rich and <tspan class="cls-18" x="80.25" y="0">L</tspan><tspan x="91.52" y="0">oris </tspan><tspan class="cls-8" x="127.69" y="0">f</tspan><tspan x="133.78" y="0">or </tspan><tspan x="-7" y="23">helping me with </tspan><tspan class="cls-11" x="132.11" y="23">m</tspan><tspan x="149.03" y="23">y </tspan><tspan class="cls-6" x="-18.67" y="46">o</tspan><tspan x="-7.51" y="46">dd printing </tspan><tspan class="cls-16" x="90.1" y="46">r</tspan><tspan class="cls-6" x="97.1" y="46">e</tspan><tspan x="107.92" y="46">qu</tspan><tspan class="cls-13" x="130.27" y="46">e</tspan><tspan x="141.12" y="46">st</tspan><tspan class="cls-12" x="157.38" y="46">s</tspan><tspan x="166.95" y="46" xml:space="preserve">.  </tspan></text><text class="cls-2" transform="translate(50.68 453.46)"><tspan class="cls-19">B</tspan><tspan x="13.11" y="0">etha</tspan><tspan class="cls-11" x="52.27" y="0">n</tspan><tspan class="cls-14" x="63.05" y="0">y</tspan><tspan x="72.25" y="0">, John and </tspan><tspan x="4.17" y="23">Michelle </tspan><tspan class="cls-8" x="80.62" y="23">f</tspan><tspan x="86.71" y="23">or </tspan><tspan class="cls-6" x="109.04" y="23">b</tspan><tspan x="120.68" y="23">eing </tspan><tspan x="2.97" y="46">the</tspan><tspan class="cls-20" x="31.37" y="46">r</tspan><tspan x="38.37" y="46">e </tspan><tspan class="cls-3" x="53.08" y="46">a</tspan><tspan x="63.73" y="46">t </tspan><tspan class="cls-11" x="74.43" y="46">m</tspan><tspan x="91.34" y="46">y </tspan><tspan class="cls-9" x="105.42" y="46">w</tspan><tspan x="119.53" y="46">o</tspan><tspan class="cls-15" x="130.61" y="46">r</tspan><tspan x="137.81" y="46">s</tspan><tspan class="cls-21" x="147.33" y="46">t</tspan><tspan x="154.55" y="46" xml:space="preserve">.  </tspan></text><path d="M181.72,114.37c-5-1.83-6.71-5.27-4.92-11.15l3.16,1.15c-1,3.42,0,5.41,3.26,6.61,2.84,1,5.06.27,5.91-2,.64-1.76.05-2.79-2.6-4.78l-3.37-2.51c-2.69-2-3.44-4.43-2.34-7.45,1.65-4.51,5.65-6.37,10.11-4.73s6.06,5.23,4.6,10.06l-3.16-1.15c.84-2.71-.1-4.48-2.94-5.52-2.48-.91-4.47-.21-5.23,1.87-.61,1.67-.19,2.49,2.33,4.38l2.93,2.2c3.49,2.61,4.32,5,3.12,8.25C190.84,114.29,186.63,116.17,181.72,114.37Z"/><path d="M201.35,121.56c-2.39-.87-3.6-2.44-4.07-5.22l-4.37,11.95-3.25-1.19,12-32.91,3.07,1.12-1.27,3.47c2.83-2.44,4.81-2.94,7.42-2,4.78,1.75,6.23,7.7,3.63,14.82C211.68,119.45,206.45,123.42,201.35,121.56Zm7.74-21.45c-3.52-1.29-6.52,1.35-8.87,7.75-1.88,5.14-1,9,2.26,10.18s6.45-1.58,8.63-7.53C213.15,105,212.43,101.33,209.09,100.11Z"/><path d="M219.77,115.62c-1.86,5.66-.61,8.52,2.68,9.72a5.46,5.46,0,0,0,6.78-2.74l3.25,1.19c-2.72,4.78-6.92,6.62-11.38,5-5.5-2-7.2-7.85-4.48-15.29,2.89-7.89,8.28-11.59,13.87-9.55,5,1.85,6.76,6.66,3.4,16.83Zm9.29-8.21c-3.11-1.14-6.4.88-8.13,5l10.73,3.92C233.12,111.25,232,108.48,229.06,107.41Z"/><path d="M240.6,135.91c-5.27-1.93-6.94-7.85-4.25-15.2,2.89-7.89,8.28-11.59,13.87-9.55,4.33,1.58,5.72,5.31,4.2,11.3l-3.16-1.15c.76-3.76-.08-5.8-2.64-6.74-3.38-1.24-6.59,1.37-8.68,7.1s-1.4,9.56,1.89,10.76q3.72,1.36,6.76-3.81l3.16,1.15C248.78,135.48,245,137.53,240.6,135.91Z"/><path d="M261.33,111.7l1.58-4.33,3.88,1.42-1.58,4.33Zm-9.69,27.48,8.62-23.58,3.25,1.19-8.62,23.58Z"/><path d="M274.21,147.95c-2.21-.81-2.73-2.17-2-4.83-3.11,1.93-5.5,2.33-8.25,1.33-3.74-1.37-5.17-5-3.65-9.16s4.58-5.94,8.53-5.16l5.66,1.15c1.28.26,2.08-.37,2.7-2.08.94-2.57-.1-4.48-3-5.55s-5-.4-6.22,2.89l-3-1.09c2-5.55,5.8-6.77,10.62-5,4.6,1.68,6.49,5.18,5,9.29l-5,13.57c-.33.9-.15,1.53.53,1.78a6.15,6.15,0,0,0,1.19.23l-1.06,2.89A5.68,5.68,0,0,1,274.21,147.95Zm1.05-13.77c-.91.38-1.94.26-5.86-.46-3.16-.59-4.74.11-5.6,2.45-.92,2.52-.19,4.43,2,5.24a6.27,6.27,0,0,0,8-3.35Z"/><path d="M279,149.19l11.84-32.37,3.25,1.19-11.84,32.37Z"/><path d="M154.49,127.5l-5.61,15.33c-.48,1.31-.13,2,1.31,2.57l1.13.41-1.14,3.11c-2.35-.55-2.28-.48-2.69-.62-2.57-.94-3.19-3-1.94-6.43l5.69-15.55-2.61-1,1.2-3.29,2.61,1,2.41-6.58,3.25,1.19-2.41,6.58,3.16,1.15-1.2,3.29Z"/><path d="M165.42,154.5l5.64-15.42c1.37-3.74.82-5.73-1.84-6.7-3.52-1.29-6.56.87-8.39,5.88l-4.7,12.85-3.25-1.19,11.84-32.37,3.25,1.19-4.4,12c3-2.24,4.86-2.67,7.43-1.73,4.1,1.5,5.43,5.41,3.54,10.6l-5.87,16Z"/><path d="M188,163.27c-2.21-.81-2.73-2.17-2-4.83-3.11,1.93-5.5,2.33-8.25,1.33-3.74-1.37-5.17-5-3.65-9.16s4.58-5.94,8.53-5.16l5.66,1.15c1.28.26,2.08-.37,2.7-2.08.94-2.57-.1-4.48-3-5.55s-5-.4-6.22,2.89l-3-1.09c2-5.55,5.8-6.77,10.62-5,4.6,1.68,6.49,5.18,5,9.29l-5,13.57c-.33.9-.15,1.53.53,1.78a6.15,6.15,0,0,0,1.19.23l-1.06,2.89A5.68,5.68,0,0,1,188,163.27ZM189,149.49c-.91.38-1.94.26-5.86-.46-3.16-.59-4.74.11-5.6,2.45-.92,2.52-.19,4.43,2,5.24a6.27,6.27,0,0,0,8-3.35Z"/><path d="M205.3,169.08l5.31-14.52c1.58-4.33,1.06-6.67-1.69-7.67-3.29-1.2-6.41,1-8.21,5.94L196,165.69l-3.25-1.19,8.62-23.58,3.07,1.12-1.27,3.47c2.74-2.32,5-2.86,7.69-1.89,4.1,1.5,5.43,5.41,3.54,10.6l-5.87,16Z"/><path d="M224.69,176.18,223,162.08l-3.79,2L216,173l-3.25-1.19,11.84-32.37,3.25,1.19L221,159.38l12-6.91,4.1,1.5-10.61,6.09,2.44,17.66Z"/><path d="M236.9,181.41c-5-1.83-6.71-5.27-4.92-11.15l3.16,1.15c-1,3.42,0,5.41,3.26,6.61,2.84,1,5.06.27,5.91-2,.64-1.76.05-2.79-2.6-4.78l-3.37-2.51c-2.69-2-3.44-4.43-2.34-7.45,1.65-4.51,5.65-6.37,10.11-4.73s6.06,5.23,4.6,10.06l-3.16-1.15c.84-2.71-.1-4.48-2.94-5.52-2.48-.91-4.47-.21-5.23,1.87-.61,1.67-.19,2.49,2.33,4.38l2.93,2.2c3.49,2.61,4.32,5,3.12,8.25C246,181.32,241.82,183.21,236.9,181.41Z"/><path d="M270.58,170,265,185.29c-.48,1.31-.13,2,1.31,2.57l1.13.41-1.14,3.11c-2.35-.55-2.28-.48-2.69-.62-2.57-.94-3.19-3-1.94-6.43l5.69-15.55-2.61-1,1.2-3.29,2.61,1,2.41-6.58,3.25,1.19-2.41,6.58,3.16,1.15-1.2,3.29Z"/><path d="M276.12,195.7c-5.28-1.93-7.11-8.38-4.42-15.72s8.2-11.11,13.66-9.11c5.18,1.9,6.94,8.42,4.29,15.67S281.44,197.65,276.12,195.7ZM284,174.32c-3.52-1.29-7,1.39-9,6.89s-1.07,9.78,2.31,11,6.88-1.47,8.87-6.93S287.33,175.52,284,174.32Z"/></g></g></svg>