<?xml version="1.0" encoding="utf-8"?>
<!-- Generator: Adobe Illustrator 21.1.0, SVG Export Plug-In . SVG Version: 6.00 Build 0)  -->
<!DOCTYPE svg PUBLIC "-//W3C//DTD SVG 1.1//EN" "http://www.w3.org/Graphics/SVG/1.1/DTD/svg11.dtd">
<svg version="1.1" id="Layer_1" xmlns="http://www.w3.org/2000/svg" xmlns:xlink="http://www.w3.org/1999/xlink" x="0px" y="0px"
	 viewBox="0 0 549.8 1062.8" style="enable-background:new 0 0 549.8 1062.8;" xml:space="preserve">
<style type="text/css">
	.st0{fill:#FFFFFF;stroke:#000000;stroke-width:0.75;stroke-miterlimit:10;}
	.st1{enable-background:new    ;}
</style>
<title>Asset 21</title>
<g id="Layer_2">
	<g id="Layer_1-2">
		<circle class="st0" cx="131.4" cy="464.4" r="131"/>
		<circle class="st0" cx="418.4" cy="346.4" r="131"/>
		<circle class="st0" cx="236.4" cy="931.4" r="131"/>
		<circle class="st0" cx="365.4" cy="657.4" r="131"/>
		<circle class="st0" cx="226.4" cy="131.4" r="131"/>
		<g class="st1">
			<path d="M366.7,312.8v9.1c0,3.3-1.9,5-4.8,5c-2.9,0-4.8-1.7-5-5l1.8-0.1c0.2,2.2,1.2,3.6,3.2,3.6c2,0,2.9-1.1,2.9-3.5v-9.1H366.7
				z"/>
		</g>
		<g class="st1">
			<path d="M376.7,324.7c0,0.5,0.3,0.7,0.7,0.7c0.2,0,0.6-0.1,0.8-0.2v1c-0.3,0.3-0.7,0.6-1.5,0.6c-1,0-1.7-0.7-1.8-1.9
				c-0.5,1.1-1.9,2-3.5,2c-1.9,0-3.1-1-3.1-2.7c0-1.8,1.6-2.6,3.9-3l2.6-0.5v-0.4c0-1.3-0.8-2.1-2.1-2.1c-1.4,0-2.1,0.8-2.4,1.9
				l-1.6-0.2c0.4-1.8,1.8-3.1,4.1-3.1c2.4,0,3.9,1.2,3.9,3.7V324.7z M375,321.9l-2.2,0.5c-1.5,0.3-2.5,0.6-2.5,1.8
				c0,0.8,0.6,1.4,1.7,1.4c1.7,0,3-1.3,3-3.2V321.9z"/>
			<path d="M391,316.7c2.5,0,3.4,1.7,3.4,3.9v6h-1.8v-5.8c0-1.6-0.7-2.6-2.1-2.6c-1.4,0-2.5,1.1-2.5,2.9v5.5h-1.8v-5.8
				c0-1.6-0.7-2.6-2.1-2.6c-1.4,0-2.4,1.1-2.4,2.9v5.5h-1.8V317h1.8v1.7c0.5-1.2,1.6-2,3.1-2c1.7,0,2.7,0.8,3.1,2.1
				C388.3,317.6,389.5,316.7,391,316.7z"/>
			<path d="M396.7,312.8h1.9v2.1h-1.9V312.8z M398.6,317v9.6h-1.8V317H398.6z"/>
			<path d="M409.9,323.4c-0.5,2.2-2.1,3.5-4.5,3.5c-2.9,0-5-1.9-5-4.9c0-3,2.1-5.2,4.9-5.2c3.1,0,4.6,2.2,4.6,4.8v0.7h-7.7
				c0.1,1.9,1.4,3.2,3.1,3.2c1.6,0,2.6-0.8,2.9-2.2L409.9,323.4z M408.1,321.1c-0.1-1.5-0.9-2.9-2.8-2.9c-1.7,0-2.8,1.4-3,2.9H408.1
				z"/>
		</g>
		<g class="st1">
			<path d="M414.7,318.3V317h1.5v-1.1c0-2,1.2-3.4,3.2-3.4c1.7,0,2.6,0.7,3,2.2l-1.3,0.4c-0.2-0.7-0.8-1.3-1.7-1.3
				c-1,0-1.5,0.7-1.5,1.9v1.3h2.7v1.3H418v8.3h-1.8v-8.3H414.7z"/>
		</g>
		<g class="st1">
			<path d="M426.2,326.9c-2.8,0-4.9-2.1-4.9-5.1s2.1-5.1,4.9-5.1c2.8,0,4.9,2.1,4.9,5.1S429,326.9,426.2,326.9z M426.2,325.5
				c2,0,3.1-1.5,3.1-3.7c0-2.2-1.1-3.7-3.1-3.7c-1.9,0-3,1.5-3,3.7C423.2,324,424.2,325.5,426.2,325.5z"/>
			<path d="M438.7,318.8c-0.5-0.3-0.9-0.4-1.5-0.4c-1.4,0-2.4,1.3-2.4,3.1v5.1H433V317h1.8v2c0.4-1.1,1.3-2.2,2.7-2.2
				c0.6,0,1,0.2,1.4,0.4L438.7,318.8z"/>
		</g>
		<g class="st1">
			<path d="M445.6,330.3l1.6-3.7l-4-9.6h1.9l3.1,7.4h0.1l2.9-7.4h1.8l-5.5,13.3H445.6z"/>
		</g>
		<g class="st1">
			<path d="M458.4,326.9c-2.8,0-4.9-2.1-4.9-5.1s2.1-5.1,4.9-5.1c2.8,0,4.9,2.1,4.9,5.1S461.2,326.9,458.4,326.9z M458.4,325.5
				c2,0,3.1-1.5,3.1-3.7c0-2.2-1.1-3.7-3.1-3.7c-1.9,0-3,1.5-3,3.7C455.4,324,456.5,325.5,458.4,325.5z"/>
			<path d="M471.7,317h1.8v9.6h-1.8v-1.7c-0.5,1.1-1.7,2-3.1,2c-2.5,0-3.4-1.6-3.4-3.9v-6h1.8v5.8c0,1.6,0.7,2.6,2.2,2.6
				c1.4,0,2.5-1.1,2.5-2.9V317z"/>
			<path d="M481.8,318.8c-0.5-0.3-0.9-0.4-1.5-0.4c-1.4,0-2.4,1.3-2.4,3.1v5.1H476V317h1.8v2c0.4-1.1,1.3-2.2,2.7-2.2
				c0.6,0,1,0.2,1.4,0.4L481.8,318.8z"/>
		</g>
		<g class="st1">
			<path d="M330.4,339.7c2.8,0,4.3,1.9,4.5,4.2l-1.6,0.1c-0.2-1.7-1.2-2.8-2.9-2.8c-1.8,0-3,1.4-3,3.6c0,2.2,1.2,3.6,3,3.6
				c1.8,0,2.8-1.2,2.9-2.9l1.6,0.2c-0.2,2.3-1.7,4.2-4.5,4.2c-2.9,0-4.9-2-4.9-5.1S327.5,339.7,330.4,339.7z"/>
		</g>
		<g class="st1">
			<path d="M341.1,349.9c-2.8,0-4.9-2.1-4.9-5.1s2.1-5.1,4.9-5.1c2.8,0,4.9,2.1,4.9,5.1S344,349.9,341.1,349.9z M341.1,348.5
				c2,0,3.1-1.5,3.1-3.7c0-2.2-1.1-3.7-3.1-3.7c-1.9,0-3,1.5-3,3.7C338.1,347,339.2,348.5,341.1,348.5z"/>
			<path d="M349.8,349.6H348V340h1.8v1.7c0.5-1.2,1.8-2,3.2-2c2.5,0,3.5,1.7,3.5,3.9v6h-1.8v-5.8c0-1.6-0.8-2.6-2.3-2.6
				c-1.5,0-2.6,1.1-2.6,2.9V349.6z"/>
			<path d="M359.2,341.3h-1.5v-1l0.6-0.1c0.9-0.2,1.1-0.6,1.3-1.5l0.3-1.3h1v2.7h2.7v1.3H361v5.8c0,0.9,0.4,1.3,1.2,1.3
				c0.6,0,1.3-0.3,1.8-0.6v1.2c-0.7,0.5-1.4,0.8-2.5,0.8c-1.4,0-2.3-0.6-2.3-2.5V341.3z"/>
			<path d="M365.6,335.8h1.9v2.1h-1.9V335.8z M367.4,340v9.6h-1.8V340H367.4z"/>
			<path d="M371.7,349.6h-1.8V340h1.8v1.7c0.5-1.2,1.8-2,3.2-2c2.5,0,3.5,1.7,3.5,3.9v6h-1.8v-5.8c0-1.6-0.8-2.6-2.3-2.6
				c-1.5,0-2.6,1.1-2.6,2.9V349.6z"/>
			<path d="M387.3,340h1.8v9.6h-1.8v-1.7c-0.5,1.1-1.7,2-3.1,2c-2.5,0-3.4-1.6-3.4-3.9v-6h1.8v5.8c0,1.6,0.7,2.6,2.2,2.6
				c1.4,0,2.5-1.1,2.5-2.9V340z"/>
			<path d="M395.9,349.9c-2.8,0-4.9-2.1-4.9-5.1s2.1-5.1,4.9-5.1c2.8,0,4.9,2.1,4.9,5.1S398.7,349.9,395.9,349.9z M395.9,348.5
				c2,0,3.1-1.5,3.1-3.7c0-2.2-1.1-3.7-3.1-3.7c-1.9,0-3,1.5-3,3.7C392.9,347,394,348.5,395.9,348.5z"/>
			<path d="M409.2,340h1.8v9.6h-1.8v-1.7c-0.5,1.1-1.7,2-3.1,2c-2.5,0-3.4-1.6-3.4-3.9v-6h1.8v5.8c0,1.6,0.7,2.6,2.2,2.6
				c1.4,0,2.5-1.1,2.5-2.9V340z"/>
			<path d="M414.3,346.3c0.2,1.5,1.2,2.3,2.9,2.3c1.3,0,2.2-0.5,2.2-1.4c0-0.9-0.6-1.2-1.8-1.4l-1.6-0.3c-1.8-0.3-2.9-1.1-2.9-2.7
				c0-1.8,1.5-2.9,3.7-2.9c2.6,0,4,1.2,4.2,3.4l-1.5,0.1c-0.2-1.5-1.1-2.2-2.8-2.2c-1.2,0-2,0.5-2,1.4c0,0.8,0.5,1.2,1.5,1.3
				l1.8,0.3c1.9,0.3,3.1,1.1,3.1,2.8c0,1.9-1.7,2.9-3.9,2.9c-2.4,0-4.2-1.1-4.4-3.5L414.3,346.3z"/>
			<path d="M434.8,346.3c-0.8,0-1.5-0.1-2.1-0.4c-0.3,0.2-0.6,0.5-0.6,0.9c0,0.5,0.3,0.8,1.2,0.8h3.8c2.1,0,3.2,1.1,3.2,2.6
				c0,2.4-2.7,3.3-5.5,3.3c-2.6,0-4.8-0.8-4.8-2.6c0-1.1,0.8-1.8,2-2c-0.9-0.3-1.3-0.9-1.3-1.7c0-0.8,0.6-1.4,1.5-1.8
				c-0.8-0.6-1.3-1.4-1.3-2.5c0-2,1.7-3.3,4-3.3c1.2,0,2.3,0.4,3,1c0.5-0.8,1.4-1.3,2.4-1.3v1.6c-0.6,0-1.4,0.2-1.8,0.4
				c0.3,0.5,0.5,1,0.5,1.6C438.9,345,437.2,346.3,434.8,346.3z M434.6,352.4c2.2,0,3.8-0.5,3.8-1.9c0-0.9-0.7-1.2-1.8-1.2h-3.1
				c-1,0-1.8,0.3-1.8,1.4C431.6,351.8,432.8,352.4,434.6,352.4z M434.8,340.9c-1.3,0-2.2,0.7-2.2,2.1c0,1.3,0.8,2.1,2.2,2.1
				c1.4,0,2.2-0.7,2.2-2.1C437,341.7,436.2,340.9,434.8,340.9z"/>
			<path d="M448,340h1.8v9.6H448v-1.7c-0.5,1.1-1.7,2-3.1,2c-2.5,0-3.4-1.6-3.4-3.9v-6h1.8v5.8c0,1.6,0.7,2.6,2.2,2.6
				c1.4,0,2.5-1.1,2.5-2.9V340z"/>
			<path d="M452.3,335.8h1.9v2.1h-1.9V335.8z M454.1,340v9.6h-1.8V340H454.1z"/>
			<path d="M463.9,347.6c-0.4,1.2-1.7,2.3-3.5,2.3c-2.9,0-4.4-2.2-4.4-5.1c0-2.8,1.5-5.1,4.4-5.1c1.8,0,3,1.1,3.5,2.3v-6.3h1.8v13.9
				h-1.8V347.6z M463.9,344.5c0-2.1-1.3-3.3-3.1-3.3c-1.9,0-2.9,1.4-2.9,3.6s1.1,3.6,2.9,3.6c1.7,0,3.1-1.2,3.1-3.3V344.5z"/>
			<path d="M475.9,347.7c0,0.5,0.3,0.7,0.7,0.7c0.2,0,0.6-0.1,0.8-0.2v1c-0.3,0.3-0.7,0.6-1.5,0.6c-1,0-1.7-0.7-1.8-1.9
				c-0.5,1.1-1.9,2-3.5,2c-1.9,0-3.1-1-3.1-2.7c0-1.8,1.6-2.6,3.9-3l2.6-0.5v-0.4c0-1.3-0.8-2.1-2.1-2.1c-1.4,0-2.1,0.8-2.4,1.9
				l-1.6-0.2c0.4-1.8,1.8-3.1,4.1-3.1c2.4,0,3.9,1.2,3.9,3.7V347.7z M474.2,344.9l-2.2,0.5c-1.5,0.3-2.5,0.6-2.5,1.8
				c0,0.8,0.6,1.4,1.7,1.4c1.7,0,3-1.3,3-3.2V344.9z"/>
			<path d="M480.8,349.6h-1.8V340h1.8v1.7c0.5-1.2,1.8-2,3.2-2c2.5,0,3.5,1.7,3.5,3.9v6h-1.8v-5.8c0-1.6-0.8-2.6-2.3-2.6
				c-1.5,0-2.6,1.1-2.6,2.9V349.6z"/>
		</g>
		<g class="st1">
			<path d="M494.2,339.7c2.8,0,4.3,1.9,4.5,4.2l-1.6,0.1c-0.2-1.7-1.2-2.8-2.9-2.8c-1.8,0-3,1.4-3,3.6c0,2.2,1.2,3.6,3,3.6
				c1.8,0,2.8-1.2,2.9-2.9l1.6,0.2c-0.2,2.3-1.7,4.2-4.5,4.2c-2.9,0-4.9-2-4.9-5.1S491.3,339.7,494.2,339.7z"/>
		</g>
		<g class="st1">
			<path d="M509.5,346.4c-0.5,2.2-2.1,3.5-4.5,3.5c-2.9,0-5-1.9-5-4.9c0-3,2.1-5.2,4.9-5.2c3.1,0,4.6,2.2,4.6,4.8v0.7h-7.7
				c0.1,1.9,1.4,3.2,3.1,3.2c1.6,0,2.6-0.8,2.9-2.2L509.5,346.4z M507.6,344.1c-0.1-1.5-0.9-2.9-2.8-2.9c-1.7,0-2.8,1.4-3,2.9H507.6
				z"/>
		</g>
		<g class="st1">
			<path d="M510.8,347.4h2.2v2.2c0,1.5-0.4,2.4-2.2,2.5V351c0.8-0.1,1-0.4,1-1.3h-1V347.4z"/>
		</g>
		<g class="st1">
			<path d="M329.7,376.3h-1.8V363h1.8v2c0.4-1.2,1.6-2.3,3.5-2.3c2.8,0,4.4,2.2,4.4,5.1c0,2.8-1.6,5.1-4.4,5.1c-1.8,0-3-1.1-3.5-2.3
				V376.3z M329.6,368.1c0,2.1,1.3,3.3,3.1,3.3c1.9,0,2.9-1.4,2.9-3.6s-1-3.6-2.9-3.6c-1.7,0-3.1,1.2-3.1,3.3V368.1z"/>
		</g>
		<g class="st1">
			<path d="M347.2,370.7c0,0.5,0.3,0.7,0.7,0.7c0.2,0,0.6-0.1,0.8-0.2v1c-0.3,0.3-0.7,0.6-1.5,0.6c-1,0-1.7-0.7-1.8-1.9
				c-0.5,1.1-1.9,2-3.5,2c-1.9,0-3.1-1-3.1-2.7c0-1.8,1.6-2.6,3.9-3l2.6-0.5v-0.4c0-1.3-0.8-2.1-2.1-2.1c-1.4,0-2.1,0.8-2.4,1.9
				l-1.6-0.2c0.4-1.8,1.8-3.1,4.1-3.1c2.4,0,3.9,1.2,3.9,3.7V370.7z M345.4,367.9l-2.2,0.5c-1.5,0.3-2.5,0.6-2.5,1.8
				c0,0.8,0.6,1.4,1.7,1.4c1.7,0,3-1.3,3-3.2V367.9z"/>
		</g>
		<g class="st1">
			<path d="M350.4,364.3h-1.5v-1l0.6-0.1c0.9-0.2,1.1-0.6,1.3-1.5l0.3-1.3h1v2.7h2.7v1.3h-2.7v5.8c0,0.9,0.4,1.3,1.2,1.3
				c0.6,0,1.3-0.3,1.8-0.6v1.2c-0.7,0.5-1.4,0.8-2.5,0.8c-1.4,0-2.3-0.6-2.3-2.5V364.3z"/>
			<path d="M356.8,358.8h1.9v2.1h-1.9V358.8z M358.6,363v9.6h-1.8V363H358.6z"/>
			<path d="M369.9,369.4c-0.5,2.2-2.1,3.5-4.5,3.5c-2.9,0-5-1.9-5-4.9c0-3,2.1-5.2,4.9-5.2c3.1,0,4.6,2.2,4.6,4.8v0.7h-7.7
				c0.1,1.9,1.4,3.2,3.1,3.2c1.6,0,2.6-0.8,2.9-2.2L369.9,369.4z M368.1,367.1c-0.1-1.5-0.9-2.9-2.8-2.9c-1.7,0-2.8,1.4-3,2.9H368.1
				z"/>
			<path d="M373.7,372.6h-1.8V363h1.8v1.7c0.5-1.2,1.8-2,3.2-2c2.5,0,3.5,1.7,3.5,3.9v6h-1.8v-5.8c0-1.6-0.8-2.6-2.3-2.6
				c-1.5,0-2.6,1.1-2.6,2.9V372.6z"/>
		</g>
		<g class="st1">
			<path d="M387.1,362.7c2.8,0,4.3,1.9,4.5,4.2l-1.6,0.1c-0.2-1.7-1.2-2.8-2.9-2.8c-1.8,0-3,1.4-3,3.6c0,2.2,1.2,3.6,3,3.6
				c1.8,0,2.8-1.2,2.9-2.9l1.6,0.2c-0.2,2.3-1.7,4.2-4.5,4.2c-2.9,0-4.9-2-4.9-5.1S384.2,362.7,387.1,362.7z"/>
		</g>
		<g class="st1">
			<path d="M402.4,369.4c-0.5,2.2-2.1,3.5-4.5,3.5c-2.9,0-5-1.9-5-4.9c0-3,2.1-5.2,4.9-5.2c3.1,0,4.6,2.2,4.6,4.8v0.7h-7.7
				c0.1,1.9,1.4,3.2,3.1,3.2c1.6,0,2.6-0.8,2.9-2.2L402.4,369.4z M400.6,367.1c-0.1-1.5-0.9-2.9-2.8-2.9c-1.7,0-2.8,1.4-3,2.9H400.6
				z"/>
			<path d="M416,370.7c0,0.5,0.3,0.7,0.7,0.7c0.2,0,0.6-0.1,0.8-0.2v1c-0.3,0.3-0.7,0.6-1.5,0.6c-1,0-1.7-0.7-1.8-1.9
				c-0.5,1.1-1.9,2-3.5,2c-1.9,0-3.1-1-3.1-2.7c0-1.8,1.6-2.6,3.9-3l2.6-0.5v-0.4c0-1.3-0.8-2.1-2.1-2.1c-1.4,0-2.1,0.8-2.4,1.9
				l-1.6-0.2c0.4-1.8,1.8-3.1,4.1-3.1c2.4,0,3.9,1.2,3.9,3.7V370.7z M414.3,367.9l-2.2,0.5c-1.5,0.3-2.5,0.6-2.5,1.8
				c0,0.8,0.5,1.4,1.7,1.4c1.7,0,3-1.3,3-3.2V367.9z"/>
			<path d="M420.9,372.6H419V363h1.8v1.7c0.5-1.2,1.8-2,3.2-2c2.5,0,3.5,1.7,3.5,3.9v6h-1.8v-5.8c0-1.6-0.8-2.6-2.3-2.6
				c-1.5,0-2.6,1.1-2.6,2.9V372.6z"/>
			<path d="M437.2,370.6c-0.4,1.2-1.7,2.3-3.5,2.3c-2.9,0-4.4-2.2-4.4-5.1c0-2.8,1.5-5.1,4.4-5.1c1.8,0,3,1.1,3.5,2.3v-6.3h1.8v13.9
				h-1.8V370.6z M437.2,367.5c0-2.1-1.3-3.3-3.1-3.3c-1.9,0-2.9,1.4-2.9,3.6s1.1,3.6,2.9,3.6c1.7,0,3.1-1.2,3.1-3.3V367.5z"/>
			<path d="M447.3,358.8v13.9h-1.8v-13.9H447.3z"/>
		</g>
		<g class="st1">
			<path d="M454,372.9c-2.8,0-4.9-2.1-4.9-5.1s2.1-5.1,4.9-5.1c2.8,0,4.9,2.1,4.9,5.1S456.9,372.9,454,372.9z M454,371.5
				c2,0,3.1-1.5,3.1-3.7c0-2.2-1.1-3.7-3.1-3.7c-1.9,0-3,1.5-3,3.7C451,370,452.1,371.5,454,371.5z"/>
			<path d="M469.5,370.3L469.5,370.3l2.3-7.3h1.7l-3.1,9.6h-1.8l-2-7.2h-0.1l-2,7.2h-1.8l-3.1-9.6h1.8l2.3,7.3h0.1l2-7.3h1.5
				L469.5,370.3z"/>
		</g>
		<g class="st1">
			<path d="M474.9,366.2h5.1v1.6h-5.1V366.2z"/>
		</g>
		<g class="st1">
			<path d="M484.3,372.6h-1.8v-13.9h1.8v8.6l4.8-4.4h2.3l-4.4,3.9l4.6,5.7h-2.2l-3.8-4.7l-1.3,1.2V372.6z"/>
		</g>
		<g class="st1">
			<path d="M501.4,369.4c-0.5,2.2-2.1,3.5-4.5,3.5c-2.9,0-5-1.9-5-4.9c0-3,2.1-5.2,4.9-5.2c3.1,0,4.6,2.2,4.6,4.8v0.7h-7.7
				c0.1,1.9,1.4,3.2,3.1,3.2c1.6,0,2.6-0.8,2.9-2.2L501.4,369.4z M499.6,367.1c-0.1-1.5-0.9-2.9-2.8-2.9c-1.7,0-2.8,1.4-3,2.9H499.6
				z"/>
		</g>
		<g class="st1">
			<path d="M504.6,376.3l1.6-3.7l-4-9.6h1.9l3.1,7.4h0.1l2.9-7.4h1.8l-5.5,13.3H504.6z"/>
		</g>
		<g class="st1">
			<path d="M345.4,387.3h-1.5v-1l0.6-0.1c0.9-0.2,1.1-0.6,1.3-1.5l0.3-1.3h1v2.7h2.7v1.3h-2.7v5.8c0,0.9,0.4,1.3,1.2,1.3
				c0.6,0,1.3-0.3,1.8-0.6v1.2c-0.7,0.5-1.4,0.8-2.5,0.8c-1.4,0-2.3-0.6-2.3-2.5V387.3z"/>
			<path d="M353.6,395.6h-1.8v-13.9h1.8v6c0.5-1.2,1.8-2,3.2-2c2.5,0,3.5,1.7,3.5,3.9v6h-1.8v-5.8c0-1.6-0.8-2.6-2.3-2.6
				c-1.5,0-2.6,1.1-2.6,2.9V395.6z"/>
			<path d="M371.5,392.4c-0.5,2.2-2.1,3.5-4.5,3.5c-2.9,0-5-1.9-5-4.9c0-3,2.1-5.2,4.9-5.2c3.1,0,4.6,2.2,4.6,4.8v0.7h-7.7
				c0.1,1.9,1.4,3.2,3.1,3.2c1.6,0,2.6-0.8,2.9-2.2L371.5,392.4z M369.7,390.1c-0.1-1.5-0.9-2.9-2.8-2.9c-1.7,0-2.8,1.4-3,2.9H369.7
				z"/>
		</g>
		<g class="st1">
			<path d="M379.2,387.8c-0.5-0.3-0.9-0.4-1.5-0.4c-1.4,0-2.4,1.3-2.4,3.1v5.1h-1.8V386h1.8v2c0.4-1.1,1.3-2.2,2.7-2.2
				c0.6,0,1,0.2,1.4,0.4L379.2,387.8z"/>
		</g>
		<g class="st1">
			<path d="M388.4,393.7c0,0.5,0.3,0.7,0.7,0.7c0.2,0,0.6-0.1,0.8-0.2v1c-0.3,0.3-0.7,0.6-1.5,0.6c-1,0-1.7-0.7-1.8-1.9
				c-0.5,1.1-1.9,2-3.5,2c-1.9,0-3.1-1-3.1-2.7c0-1.8,1.6-2.6,3.9-3l2.6-0.5v-0.4c0-1.3-0.8-2.1-2.1-2.1c-1.4,0-2.1,0.8-2.4,1.9
				l-1.6-0.2c0.4-1.8,1.8-3.1,4.1-3.1c2.4,0,3.9,1.2,3.9,3.7V393.7z M386.6,390.9l-2.2,0.5c-1.5,0.3-2.5,0.6-2.5,1.8
				c0,0.8,0.6,1.4,1.7,1.4c1.7,0,3-1.3,3-3.2V390.9z"/>
		</g>
		<g class="st1">
			<path d="M393.2,399.3h-1.8V386h1.8v2c0.4-1.2,1.7-2.3,3.5-2.3c2.8,0,4.4,2.2,4.4,5.1c0,2.8-1.6,5.1-4.4,5.1c-1.8,0-3-1.1-3.5-2.3
				V399.3z M393.2,391.1c0,2.1,1.3,3.3,3.1,3.3c1.9,0,2.9-1.4,2.9-3.6s-1-3.6-2.9-3.6c-1.7,0-3.1,1.2-3.1,3.3V391.1z"/>
		</g>
		<g class="st1">
			<path d="M404.2,399.3l1.6-3.7l-4-9.6h1.9l3.1,7.4h0.1l2.9-7.4h1.8l-5.5,13.3H404.2z"/>
		</g>
		<g class="st1">
			<path d="M417.7,392.3c0.2,1.5,1.2,2.3,2.9,2.3c1.3,0,2.2-0.5,2.2-1.4c0-0.9-0.6-1.2-1.8-1.4l-1.6-0.3c-1.8-0.3-2.9-1.1-2.9-2.7
				c0-1.8,1.5-2.9,3.7-2.9c2.6,0,4,1.2,4.2,3.4l-1.5,0.1c-0.2-1.5-1.1-2.2-2.8-2.2c-1.2,0-2,0.5-2,1.4c0,0.8,0.5,1.2,1.5,1.3
				l1.8,0.3c1.9,0.3,3.1,1.1,3.1,2.8c0,1.9-1.7,2.9-3.9,2.9c-2.4,0-4.2-1.1-4.4-3.5L417.7,392.3z"/>
		</g>
		<g class="st1">
			<path d="M435.3,392.4c-0.5,2.2-2.1,3.5-4.5,3.5c-2.9,0-5-1.9-5-4.9c0-3,2.1-5.2,4.9-5.2c3.1,0,4.6,2.2,4.6,4.8v0.7h-7.7
				c0.1,1.9,1.4,3.2,3.1,3.2c1.6,0,2.6-0.8,2.9-2.2L435.3,392.4z M433.5,390.1c-0.1-1.5-0.9-2.9-2.8-2.9c-1.7,0-2.8,1.4-3,2.9H433.5
				z"/>
		</g>
		<g class="st1">
			<path d="M438.1,392.3c0.2,1.5,1.2,2.3,2.9,2.3c1.3,0,2.2-0.5,2.2-1.4c0-0.9-0.6-1.2-1.8-1.4l-1.6-0.3c-1.8-0.3-2.9-1.1-2.9-2.7
				c0-1.8,1.5-2.9,3.7-2.9c2.6,0,4,1.2,4.2,3.4l-1.5,0.1c-0.2-1.5-1.1-2.2-2.8-2.2c-1.2,0-2,0.5-2,1.4c0,0.8,0.5,1.2,1.5,1.3
				l1.8,0.3c1.9,0.3,3.1,1.1,3.1,2.8c0,1.9-1.7,2.9-3.9,2.9c-2.4,0-4.2-1.1-4.4-3.5L438.1,392.3z"/>
			<path d="M447.7,392.3c0.2,1.5,1.2,2.3,2.9,2.3c1.3,0,2.2-0.5,2.2-1.4c0-0.9-0.6-1.2-1.8-1.4l-1.6-0.3c-1.8-0.3-2.9-1.1-2.9-2.7
				c0-1.8,1.5-2.9,3.7-2.9c2.6,0,4,1.2,4.2,3.4l-1.5,0.1c-0.2-1.5-1.1-2.2-2.8-2.2c-1.2,0-2,0.5-2,1.4c0,0.8,0.5,1.2,1.5,1.3
				l1.8,0.3c1.9,0.3,3.1,1.1,3.1,2.8c0,1.9-1.7,2.9-3.9,2.9c-2.4,0-4.2-1.1-4.4-3.5L447.7,392.3z"/>
			<path d="M456.3,381.8h1.9v2.1h-1.9V381.8z M458.2,386v9.6h-1.8V386H458.2z"/>
			<path d="M464.9,395.9c-2.8,0-4.9-2.1-4.9-5.1s2.1-5.1,4.9-5.1c2.8,0,4.9,2.1,4.9,5.1S467.8,395.9,464.9,395.9z M464.9,394.5
				c2,0,3.1-1.5,3.1-3.7c0-2.2-1.1-3.7-3.1-3.7c-1.9,0-3,1.5-3,3.7C461.9,393,463,394.5,464.9,394.5z"/>
			<path d="M473.6,395.6h-1.8V386h1.8v1.7c0.5-1.2,1.8-2,3.2-2c2.5,0,3.5,1.7,3.5,3.9v6h-1.8v-5.8c0-1.6-0.8-2.6-2.3-2.6
				c-1.5,0-2.6,1.1-2.6,2.9V395.6z"/>
		</g>
		<g class="st1">
			<path d="M483.5,392.3c0.2,1.5,1.2,2.3,2.9,2.3c1.3,0,2.2-0.5,2.2-1.4c0-0.9-0.6-1.2-1.8-1.4l-1.6-0.3c-1.8-0.3-2.9-1.1-2.9-2.7
				c0-1.8,1.5-2.9,3.7-2.9c2.6,0,4,1.2,4.2,3.4l-1.5,0.1c-0.2-1.5-1.1-2.2-2.8-2.2c-1.2,0-2,0.5-2,1.4c0,0.8,0.5,1.2,1.5,1.3
				l1.8,0.3c1.9,0.3,3.1,1.1,3.1,2.8c0,1.9-1.7,2.9-3.9,2.9c-2.4,0-4.2-1.1-4.4-3.5L483.5,392.3z"/>
		</g>
		<g class="st1">
			<path d="M491.8,393.4h2.2v2.2h-2.2V393.4z"/>
		</g>
		<g class="st1">
			<path d="M297.4,608.4v9.1c0,3.3-1.9,5-4.8,5c-2.9,0-4.8-1.7-5-5l1.8-0.1c0.2,2.2,1.2,3.6,3.2,3.6c2,0,2.9-1.1,2.9-3.5v-9.1H297.4
				z"/>
			<path d="M306.3,612.6h1.8v9.6h-1.8v-1.7c-0.5,1.1-1.7,2-3.1,2c-2.5,0-3.4-1.6-3.4-3.9v-6h1.8v5.8c0,1.6,0.7,2.6,2.2,2.6
				c1.4,0,2.5-1.1,2.5-2.9V612.6z"/>
			<path d="M317.9,620.2c-0.4,1.2-1.7,2.3-3.5,2.3c-2.9,0-4.4-2.2-4.4-5.1c0-2.8,1.5-5.1,4.4-5.1c1.8,0,3,1.1,3.5,2.3v-6.3h1.8v13.9
				h-1.8V620.2z M317.9,617.1c0-2.1-1.3-3.3-3.1-3.3c-1.9,0-2.9,1.4-2.9,3.6c0,2.2,1.1,3.6,2.9,3.6c1.7,0,3.1-1.2,3.1-3.3V617.1z"/>
		</g>
		<g class="st1">
			<path d="M323.6,625.9l1.6-3.7l-4-9.6h1.9l3.1,7.4h0.1l2.9-7.4h1.8l-5.5,13.3H323.6z"/>
		</g>
		<g class="st1">
			<path d="M331,620h2.2v2.2c0,1.5-0.4,2.4-2.2,2.5v-1.1c0.8-0.1,1-0.4,1-1.3h-1V620z"/>
			<path d="M340.2,617.2c0.1,2.5,1.8,3.8,4.2,3.8c2.1,0,3.4-0.9,3.4-2.4c0-1.3-0.8-1.9-2.6-2.2l-2.8-0.5c-2-0.4-3.5-1.5-3.5-3.7
				c0-2.4,1.9-4.1,5-4.1c3.5,0,5.5,1.8,5.5,5l-1.7,0.1c-0.1-2.3-1.5-3.6-3.7-3.6c-2,0-3.1,0.9-3.1,2.5c0,1.4,0.9,1.8,2.5,2.1
				l2.5,0.5c2.5,0.5,3.8,1.6,3.8,3.8c0,2.6-2.2,4-5.2,4c-3.4,0-5.9-1.9-5.9-5.2L340.2,617.2z"/>
		</g>
		<g class="st1">
			<path d="M351.9,613.9h-1.5v-1l0.6-0.1c0.9-0.2,1.1-0.6,1.3-1.5l0.3-1.3h1v2.7h2.7v1.3h-2.7v5.8c0,0.9,0.4,1.3,1.2,1.3
				c0.6,0,1.3-0.3,1.8-0.6v1.2c-0.7,0.5-1.4,0.8-2.5,0.8c-1.4,0-2.3-0.6-2.3-2.5V613.9z"/>
		</g>
		<g class="st1">
			<path d="M367,619c-0.5,2.2-2.1,3.5-4.5,3.5c-2.9,0-5-1.9-5-4.9c0-3,2.1-5.2,4.9-5.2c3.1,0,4.6,2.2,4.6,4.8v0.7h-7.7
				c0.1,1.9,1.4,3.2,3.1,3.2c1.6,0,2.6-0.8,2.9-2.2L367,619z M365.2,616.7c-0.1-1.5-0.9-2.9-2.8-2.9c-1.7,0-2.8,1.4-3,2.9H365.2z"/>
		</g>
		<g class="st1">
			<path d="M367.8,613.9v-1.3h1.5v-1.1c0-2,1.2-3.4,3.2-3.4c1.7,0,2.6,0.7,3,2.2l-1.3,0.4c-0.2-0.7-0.8-1.3-1.7-1.3
				c-1,0-1.5,0.7-1.5,1.9v1.3h2.7v1.3h-2.7v8.3h-1.8v-8.3H367.8z"/>
		</g>
		<g class="st1">
			<path d="M382.8,620.3c0,0.5,0.3,0.7,0.7,0.7c0.2,0,0.6-0.1,0.8-0.2v1c-0.3,0.3-0.7,0.6-1.5,0.6c-1,0-1.7-0.7-1.8-1.9
				c-0.5,1.1-1.9,2-3.5,2c-1.9,0-3.1-1-3.1-2.7c0-1.8,1.6-2.6,3.9-3l2.6-0.5v-0.4c0-1.3-0.8-2.1-2.1-2.1c-1.4,0-2.1,0.8-2.4,1.9
				l-1.6-0.2c0.4-1.8,1.8-3.1,4.1-3.1c2.4,0,3.8,1.2,3.8,3.7V620.3z M381,617.5l-2.2,0.5c-1.5,0.3-2.5,0.6-2.5,1.8
				c0,0.8,0.5,1.4,1.7,1.4c1.7,0,3-1.3,3-3.2V617.5z"/>
			<path d="M387.6,622.2h-1.8v-9.6h1.8v1.7c0.5-1.2,1.8-2,3.2-2c2.5,0,3.5,1.7,3.5,3.9v6h-1.8v-5.8c0-1.6-0.8-2.6-2.3-2.6
				c-1.5,0-2.6,1.1-2.6,2.9V622.2z"/>
			<path d="M404.5,620.3c0,0.5,0.3,0.7,0.7,0.7c0.2,0,0.6-0.1,0.8-0.2v1c-0.3,0.3-0.7,0.6-1.5,0.6c-1,0-1.7-0.7-1.8-1.9
				c-0.5,1.1-1.9,2-3.5,2c-1.9,0-3.1-1-3.1-2.7c0-1.8,1.6-2.6,3.9-3l2.6-0.5v-0.4c0-1.3-0.8-2.1-2.1-2.1c-1.4,0-2.1,0.8-2.4,1.9
				l-1.6-0.2c0.4-1.8,1.8-3.1,4.1-3.1c2.4,0,3.8,1.2,3.8,3.7V620.3z M402.7,617.5l-2.2,0.5c-1.5,0.3-2.5,0.6-2.5,1.8
				c0,0.8,0.5,1.4,1.7,1.4c1.7,0,3-1.3,3-3.2V617.5z"/>
			<path d="M419.2,620.3c0,0.5,0.3,0.7,0.7,0.7c0.2,0,0.6-0.1,0.8-0.2v1c-0.3,0.3-0.7,0.6-1.5,0.6c-1,0-1.7-0.7-1.8-1.9
				c-0.5,1.1-1.9,2-3.5,2c-1.9,0-3.1-1-3.1-2.7c0-1.8,1.6-2.6,3.9-3l2.6-0.5v-0.4c0-1.3-0.8-2.1-2.1-2.1c-1.4,0-2.1,0.8-2.4,1.9
				l-1.6-0.2c0.4-1.8,1.8-3.1,4.1-3.1c2.4,0,3.9,1.2,3.9,3.7V620.3z M417.4,617.5l-2.2,0.5c-1.5,0.3-2.5,0.6-2.5,1.8
				c0,0.8,0.6,1.4,1.7,1.4c1.7,0,3-1.3,3-3.2V617.5z"/>
			<path d="M424,622.2h-1.8v-9.6h1.8v1.7c0.5-1.2,1.8-2,3.2-2c2.5,0,3.5,1.7,3.5,3.9v6h-1.8v-5.8c0-1.6-0.8-2.6-2.3-2.6
				c-1.5,0-2.6,1.1-2.6,2.9V622.2z"/>
			<path d="M440.3,620.2c-0.4,1.2-1.7,2.3-3.5,2.3c-2.9,0-4.4-2.2-4.4-5.1c0-2.8,1.5-5.1,4.4-5.1c1.8,0,3,1.1,3.5,2.3v-6.3h1.8v13.9
				h-1.8V620.2z M440.4,617.1c0-2.1-1.3-3.3-3.1-3.3c-1.9,0-2.9,1.4-2.9,3.6c0,2.2,1.1,3.6,2.9,3.6c1.7,0,3.1-1.2,3.1-3.3V617.1z"/>
		</g>
		<g class="st1">
			<path d="M268.7,645.2v-13.9h1.9v5.9h8v-5.9h1.9v13.9h-1.9v-6.4h-8v6.4H268.7z"/>
		</g>
		<g class="st1">
			<path d="M290.7,643.3c0,0.5,0.3,0.7,0.7,0.7c0.2,0,0.6-0.1,0.8-0.2v1c-0.3,0.3-0.7,0.6-1.5,0.6c-1,0-1.7-0.7-1.8-1.9
				c-0.5,1.1-1.9,2-3.5,2c-1.9,0-3.1-1-3.1-2.7c0-1.8,1.6-2.6,3.9-3l2.6-0.5v-0.4c0-1.3-0.8-2.1-2.1-2.1c-1.4,0-2.1,0.8-2.4,1.9
				l-1.6-0.2c0.4-1.8,1.8-3.1,4.1-3.1c2.4,0,3.9,1.2,3.9,3.7V643.3z M288.9,640.5l-2.2,0.5c-1.5,0.3-2.5,0.6-2.5,1.8
				c0,0.8,0.6,1.4,1.7,1.4c1.7,0,3-1.3,3-3.2V640.5z"/>
			<path d="M295.5,645.2h-1.8v-9.6h1.8v1.7c0.5-1.2,1.8-2,3.2-2c2.5,0,3.5,1.7,3.5,3.9v6h-1.8v-5.8c0-1.6-0.8-2.6-2.3-2.6
				c-1.5,0-2.6,1.1-2.6,2.9V645.2z"/>
			<path d="M306.5,645.2h-1.8v-9.6h1.8v1.7c0.5-1.2,1.8-2,3.2-2c2.5,0,3.5,1.7,3.5,3.9v6h-1.8v-5.8c0-1.6-0.8-2.6-2.3-2.6
				c-1.5,0-2.6,1.1-2.6,2.9V645.2z"/>
			<path d="M323.3,643.3c0,0.5,0.3,0.7,0.7,0.7c0.2,0,0.6-0.1,0.8-0.2v1c-0.3,0.3-0.7,0.6-1.5,0.6c-1,0-1.7-0.7-1.8-1.9
				c-0.5,1.1-1.9,2-3.5,2c-1.9,0-3.1-1-3.1-2.7c0-1.8,1.6-2.6,3.9-3l2.6-0.5v-0.4c0-1.3-0.8-2.1-2.1-2.1c-1.4,0-2.1,0.8-2.4,1.9
				l-1.6-0.2c0.4-1.8,1.8-3.1,4.1-3.1c2.4,0,3.9,1.2,3.9,3.7V643.3z M321.5,640.5l-2.2,0.5c-1.5,0.3-2.5,0.6-2.5,1.8
				c0,0.8,0.5,1.4,1.7,1.4c1.7,0,3-1.3,3-3.2V640.5z"/>
			<path d="M328.1,645.2h-1.8v-13.9h1.8v6c0.5-1.2,1.8-2,3.2-2c2.5,0,3.5,1.7,3.5,3.9v6H333v-5.8c0-1.6-0.8-2.6-2.3-2.6
				c-1.5,0-2.6,1.1-2.6,2.9V645.2z"/>
		</g>
		<g class="st1">
			<path d="M340.1,636.9v-1.3h1.5v-1.1c0-2,1.2-3.4,3.2-3.4c1.7,0,2.6,0.7,3,2.2l-1.3,0.4c-0.2-0.7-0.8-1.3-1.7-1.3
				c-1,0-1.5,0.7-1.5,1.9v1.3h2.7v1.3h-2.7v8.3h-1.8v-8.3H340.1z"/>
		</g>
		<g class="st1">
			<path d="M351.5,645.5c-2.8,0-4.9-2.1-4.9-5.1s2.1-5.1,4.9-5.1c2.8,0,4.9,2.1,4.9,5.1S354.4,645.5,351.5,645.5z M351.5,644.1
				c2,0,3.1-1.5,3.1-3.7c0-2.2-1.1-3.7-3.1-3.7c-1.9,0-3,1.5-3,3.7C348.5,642.6,349.6,644.1,351.5,644.1z"/>
			<path d="M364.1,637.4c-0.5-0.3-0.9-0.4-1.5-0.4c-1.4,0-2.4,1.3-2.4,3.1v5.1h-1.8v-9.6h1.8v2c0.4-1.1,1.3-2.2,2.7-2.2
				c0.6,0,1,0.2,1.4,0.4L364.1,637.4z"/>
			<path d="M371.4,645.2h-1.8v-13.9h1.8v6c0.5-1.2,1.8-2,3.2-2c2.5,0,3.5,1.7,3.5,3.9v6h-1.8v-5.8c0-1.6-0.8-2.6-2.3-2.6
				c-1.5,0-2.6,1.1-2.6,2.9V645.2z"/>
			<path d="M389.3,642c-0.5,2.2-2.1,3.5-4.5,3.5c-2.9,0-5-1.9-5-4.9c0-3,2.1-5.2,4.9-5.2c3.1,0,4.6,2.2,4.6,4.8v0.7h-7.7
				c0.1,1.9,1.4,3.2,3.1,3.2c1.6,0,2.6-0.8,2.9-2.2L389.3,642z M387.5,639.7c-0.1-1.5-0.9-2.9-2.8-2.9c-1.7,0-2.8,1.4-3,2.9H387.5z"
				/>
			<path d="M393.1,631.4v13.9h-1.8v-13.9H393.1z"/>
			<path d="M397.4,648.9h-1.8v-13.3h1.8v2c0.4-1.2,1.6-2.3,3.5-2.3c2.8,0,4.4,2.2,4.4,5.1c0,2.8-1.6,5.1-4.4,5.1
				c-1.8,0-3-1.1-3.5-2.3V648.9z M397.3,640.7c0,2.1,1.3,3.3,3.1,3.3c1.9,0,2.9-1.4,2.9-3.6c0-2.2-1-3.6-2.9-3.6
				c-1.7,0-3.1,1.2-3.1,3.3V640.7z"/>
			<path d="M407.1,631.4h1.9v2.1h-1.9V631.4z M409,635.6v9.6h-1.8v-9.6H409z"/>
			<path d="M413.3,645.2h-1.8v-9.6h1.8v1.7c0.5-1.2,1.8-2,3.2-2c2.5,0,3.5,1.7,3.5,3.9v6h-1.8v-5.8c0-1.6-0.8-2.6-2.3-2.6
				c-1.5,0-2.6,1.1-2.6,2.9V645.2z"/>
			<path d="M426.2,641.9c-0.8,0-1.5-0.1-2.1-0.4c-0.3,0.2-0.6,0.5-0.6,0.9c0,0.5,0.3,0.8,1.2,0.8h3.8c2.1,0,3.2,1.1,3.2,2.6
				c0,2.4-2.7,3.3-5.5,3.3c-2.6,0-4.8-0.8-4.8-2.6c0-1.1,0.8-1.8,2-2c-0.9-0.3-1.3-0.9-1.3-1.7c0-0.8,0.6-1.4,1.5-1.8
				c-0.8-0.6-1.3-1.4-1.3-2.5c0-2,1.7-3.3,4-3.3c1.2,0,2.3,0.4,3,1c0.5-0.8,1.4-1.3,2.4-1.3v1.6c-0.6,0-1.4,0.2-1.8,0.4
				c0.3,0.5,0.5,1,0.5,1.6C430.3,640.6,428.6,641.9,426.2,641.9z M426,648c2.2,0,3.8-0.5,3.8-1.9c0-0.9-0.7-1.2-1.8-1.2h-3.1
				c-1,0-1.8,0.3-1.8,1.4C423,647.4,424.3,648,426,648z M426.2,636.5c-1.3,0-2.2,0.7-2.2,2.1c0,1.3,0.8,2.1,2.2,2.1
				c1.4,0,2.2-0.7,2.2-2.1C428.4,637.3,427.6,636.5,426.2,636.5z"/>
			<path d="M448.1,635.3c2.5,0,3.4,1.7,3.4,3.9v6h-1.8v-5.8c0-1.6-0.7-2.6-2.1-2.6c-1.4,0-2.5,1.1-2.5,2.9v5.5h-1.8v-5.8
				c0-1.6-0.7-2.6-2.1-2.6c-1.4,0-2.4,1.1-2.4,2.9v5.5h-1.8v-9.6h1.8v1.7c0.5-1.2,1.6-2,3.1-2c1.7,0,2.7,0.8,3.1,2.1
				C445.4,636.2,446.6,635.3,448.1,635.3z"/>
			<path d="M462.8,642c-0.5,2.2-2.1,3.5-4.5,3.5c-2.9,0-5-1.9-5-4.9c0-3,2.1-5.2,4.9-5.2c3.1,0,4.6,2.2,4.6,4.8v0.7h-7.7
				c0.1,1.9,1.4,3.2,3.1,3.2c1.6,0,2.6-0.8,2.9-2.2L462.8,642z M460.9,639.7c-0.1-1.5-0.9-2.9-2.8-2.9c-1.7,0-2.8,1.4-3,2.9H460.9z"
				/>
		</g>
		<g class="st1">
			<path d="M277.6,666.2c-0.4,1.2-1.7,2.3-3.5,2.3c-2.9,0-4.4-2.2-4.4-5.1c0-2.8,1.5-5.1,4.4-5.1c1.8,0,3,1.1,3.5,2.3v-6.3h1.8v13.9
				h-1.8V666.2z M277.6,663.1c0-2.1-1.3-3.3-3.1-3.3c-1.9,0-2.9,1.4-2.9,3.6c0,2.2,1.1,3.6,2.9,3.6c1.7,0,3.1-1.2,3.1-3.3V663.1z"/>
		</g>
		<g class="st1">
			<path d="M286.2,668.5c-2.8,0-4.9-2.1-4.9-5.1s2.1-5.1,4.9-5.1c2.8,0,4.9,2.1,4.9,5.1S289,668.5,286.2,668.5z M286.2,667.1
				c2,0,3.1-1.5,3.1-3.7c0-2.2-1.1-3.7-3.1-3.7c-1.9,0-3,1.5-3,3.7C283.1,665.6,284.2,667.1,286.2,667.1z"/>
		</g>
		<g class="st1">
			<path d="M297.3,658.3c2.8,0,4.3,1.9,4.5,4.2l-1.6,0.1c-0.2-1.7-1.2-2.8-2.9-2.8c-1.8,0-3,1.4-3,3.6c0,2.2,1.2,3.6,3,3.6
				c1.8,0,2.8-1.2,2.9-2.9l1.6,0.2c-0.2,2.3-1.7,4.2-4.5,4.2c-2.9,0-4.9-2-4.9-5.1S294.4,658.3,297.3,658.3z"/>
			<path d="M310.2,658.6h1.8v9.6h-1.8v-1.7c-0.5,1.1-1.7,2-3.1,2c-2.5,0-3.4-1.6-3.4-3.9v-6h1.8v5.8c0,1.6,0.7,2.6,2.2,2.6
				c1.4,0,2.5-1.1,2.5-2.9V658.6z"/>
			<path d="M325.8,658.3c2.5,0,3.4,1.7,3.4,3.9v6h-1.8v-5.8c0-1.6-0.7-2.6-2.1-2.6c-1.4,0-2.5,1.1-2.5,2.9v5.5H321v-5.8
				c0-1.6-0.7-2.6-2.1-2.6c-1.4,0-2.4,1.1-2.4,2.9v5.5h-1.8v-9.6h1.8v1.7c0.5-1.2,1.6-2,3.1-2c1.7,0,2.7,0.8,3.1,2.1
				C323.1,659.2,324.3,658.3,325.8,658.3z"/>
			<path d="M340.4,665c-0.5,2.2-2.1,3.5-4.5,3.5c-2.9,0-5-1.9-5-4.9c0-3,2.1-5.2,4.9-5.2c3.1,0,4.6,2.2,4.6,4.8v0.7h-7.7
				c0.1,1.9,1.4,3.2,3.1,3.2c1.6,0,2.6-0.8,2.9-2.2L340.4,665z M338.6,662.7c-0.1-1.5-0.9-2.9-2.8-2.9c-1.7,0-2.8,1.4-3,2.9H338.6z"
				/>
			<path d="M344.2,668.2h-1.8v-9.6h1.8v1.7c0.5-1.2,1.8-2,3.2-2c2.5,0,3.5,1.7,3.5,3.9v6h-1.8v-5.8c0-1.6-0.8-2.6-2.3-2.6
				c-1.5,0-2.6,1.1-2.6,2.9V668.2z"/>
			<path d="M353.6,659.9h-1.5v-1l0.6-0.1c0.9-0.2,1.1-0.6,1.3-1.5l0.3-1.3h1v2.7h2.7v1.3h-2.7v5.8c0,0.9,0.4,1.3,1.2,1.3
				c0.6,0,1.3-0.3,1.8-0.6v1.2c-0.7,0.5-1.4,0.8-2.5,0.8c-1.4,0-2.3-0.6-2.3-2.5V659.9z"/>
			<path d="M364.3,659.9h-1.5v-1l0.6-0.1c0.9-0.2,1.1-0.6,1.3-1.5l0.3-1.3h1v2.7h2.7v1.3h-2.7v5.8c0,0.9,0.4,1.3,1.2,1.3
				c0.6,0,1.3-0.3,1.8-0.6v1.2c-0.7,0.5-1.4,0.8-2.5,0.8c-1.4,0-2.3-0.6-2.3-2.5V659.9z"/>
			<path d="M372.5,668.2h-1.8v-13.9h1.8v6c0.5-1.2,1.8-2,3.2-2c2.5,0,3.5,1.7,3.5,3.9v6h-1.8v-5.8c0-1.6-0.8-2.6-2.3-2.6
				c-1.5,0-2.6,1.1-2.6,2.9V668.2z"/>
			<path d="M390.4,665c-0.5,2.2-2.1,3.5-4.5,3.5c-2.9,0-5-1.9-5-4.9c0-3,2.1-5.2,4.9-5.2c3.1,0,4.6,2.2,4.6,4.8v0.7h-7.7
				c0.1,1.9,1.4,3.2,3.1,3.2c1.6,0,2.6-0.8,2.9-2.2L390.4,665z M388.6,662.7c-0.1-1.5-0.9-2.9-2.8-2.9c-1.7,0-2.8,1.4-3,2.9H388.6z"
				/>
			<path d="M398.1,671.9h-1.8v-13.3h1.8v2c0.4-1.2,1.7-2.3,3.5-2.3c2.8,0,4.4,2.2,4.4,5.1c0,2.8-1.6,5.1-4.4,5.1
				c-1.8,0-3-1.1-3.5-2.3V671.9z M398.1,663.7c0,2.1,1.3,3.3,3.1,3.3c1.9,0,2.9-1.4,2.9-3.6c0-2.2-1-3.6-2.9-3.6
				c-1.7,0-3.1,1.2-3.1,3.3V663.7z"/>
		</g>
		<g class="st1">
			<path d="M413.6,660.4c-0.5-0.3-0.9-0.4-1.5-0.4c-1.4,0-2.4,1.3-2.4,3.1v5.1h-1.8v-9.6h1.8v2c0.4-1.1,1.3-2.2,2.7-2.2
				c0.6,0,1,0.2,1.4,0.4L413.6,660.4z"/>
		</g>
		<g class="st1">
			<path d="M419.2,668.5c-2.8,0-4.9-2.1-4.9-5.1s2.1-5.1,4.9-5.1c2.8,0,4.9,2.1,4.9,5.1S422,668.5,419.2,668.5z M419.2,667.1
				c2,0,3.1-1.5,3.1-3.7c0-2.2-1.1-3.7-3.1-3.7c-1.9,0-3,1.5-3,3.7C416.1,665.6,417.2,667.1,419.2,667.1z"/>
			<path d="M427.8,669.5c0,1.7-0.9,2.6-2.6,2.6c-0.8,0-1.6-0.3-2.1-0.7l0.4-1.2c0.5,0.3,0.9,0.5,1.5,0.5c0.6,0,0.9-0.4,0.9-1.1
				v-11.1h1.8V669.5z M425.9,654.4h1.9v2.1h-1.9V654.4z"/>
		</g>
		<g class="st1">
			<path d="M439.1,665c-0.5,2.2-2.1,3.5-4.5,3.5c-2.9,0-5-1.9-5-4.9c0-3,2.1-5.2,4.9-5.2c3.1,0,4.6,2.2,4.6,4.8v0.7h-7.7
				c0.1,1.9,1.4,3.2,3.1,3.2c1.6,0,2.6-0.8,2.9-2.2L439.1,665z M437.3,662.7c-0.1-1.5-0.9-2.9-2.8-2.9c-1.7,0-2.8,1.4-3,2.9H437.3z"
				/>
		</g>
		<g class="st1">
			<path d="M445.4,658.3c2.8,0,4.3,1.9,4.5,4.2l-1.6,0.1c-0.2-1.7-1.2-2.8-2.9-2.8c-1.8,0-3,1.4-3,3.6c0,2.2,1.2,3.6,3,3.6
				c1.8,0,2.8-1.2,2.9-2.9l1.6,0.2c-0.2,2.3-1.7,4.2-4.5,4.2c-2.9,0-4.9-2-4.9-5.1S442.5,658.3,445.4,658.3z"/>
		</g>
		<g class="st1">
			<path d="M452.2,659.9h-1.5v-1l0.6-0.1c0.9-0.2,1.1-0.6,1.3-1.5l0.3-1.3h1v2.7h2.7v1.3H454v5.8c0,0.9,0.4,1.3,1.2,1.3
				c0.6,0,1.3-0.3,1.8-0.6v1.2c-0.7,0.5-1.4,0.8-2.5,0.8c-1.4,0-2.3-0.6-2.3-2.5V659.9z"/>
		</g>
		<g class="st1">
			<path d="M458.6,666h2.2v2.2h-2.2V666z"/>
		</g>
		<g class="st1">
			<path d="M295.2,689.6v1.6h-11v-1.3l8.4-10.9h-8.3v-1.6H295v1.4l-8.4,10.9H295.2z"/>
			<path d="M297.1,677.4h1.9v2.1h-1.9V677.4z M298.9,681.6v9.6h-1.8v-9.6H298.9z"/>
			<path d="M303.3,677.4v13.9h-1.8v-13.9H303.3z"/>
			<path d="M305.7,677.4h1.9v2.1h-1.9V677.4z M307.6,681.6v9.6h-1.8v-9.6H307.6z"/>
			<path d="M311.9,691.2h-1.8v-9.6h1.8v1.7c0.5-1.2,1.8-2,3.2-2c2.5,0,3.5,1.7,3.5,3.9v6h-1.8v-5.8c0-1.6-0.8-2.6-2.3-2.6
				c-1.5,0-2.6,1.1-2.6,2.9V691.2z"/>
		</g>
		<g class="st1">
			<path d="M323.8,682.9v-1.3h1.5v-1.1c0-2,1.2-3.4,3.2-3.4c1.6,0,2.6,0.7,3,2.2l-1.3,0.4c-0.2-0.7-0.8-1.3-1.7-1.3
				c-1,0-1.5,0.7-1.5,1.9v1.3h2.7v1.3h-2.7v8.3h-1.8v-8.3H323.8z"/>
		</g>
		<g class="st1">
			<path d="M335.3,691.5c-2.8,0-4.9-2.1-4.9-5.1s2.1-5.1,4.9-5.1c2.8,0,4.9,2.1,4.9,5.1S338.1,691.5,335.3,691.5z M335.3,690.1
				c2,0,3.1-1.5,3.1-3.7c0-2.2-1.1-3.7-3.1-3.7c-1.9,0-3,1.5-3,3.7C332.3,688.6,333.4,690.1,335.3,690.1z"/>
			<path d="M347.9,683.4c-0.5-0.3-0.9-0.4-1.5-0.4c-1.4,0-2.4,1.3-2.4,3.1v5.1h-1.8v-9.6h1.8v2c0.4-1.1,1.3-2.2,2.7-2.2
				c0.6,0,1,0.2,1.4,0.4L347.9,683.4z"/>
			<path d="M355.2,691.2h-1.8v-13.9h1.8v6c0.5-1.2,1.8-2,3.2-2c2.5,0,3.5,1.7,3.5,3.9v6h-1.8v-5.8c0-1.6-0.8-2.6-2.3-2.6
				c-1.5,0-2.6,1.1-2.6,2.9V691.2z"/>
			<path d="M373.1,688c-0.5,2.2-2.1,3.5-4.5,3.5c-2.9,0-5-1.9-5-4.9c0-3,2.1-5.2,4.9-5.2c3.1,0,4.6,2.2,4.6,4.8v0.7h-7.7
				c0.1,1.9,1.4,3.2,3.1,3.2c1.6,0,2.6-0.8,2.9-2.2L373.1,688z M371.3,685.7c-0.1-1.5-0.9-2.9-2.8-2.9c-1.7,0-2.8,1.4-3,2.9H371.3z"
				/>
			<path d="M376.8,677.4v13.9H375v-13.9H376.8z"/>
			<path d="M381.2,694.9h-1.8v-13.3h1.8v2c0.4-1.2,1.7-2.3,3.5-2.3c2.8,0,4.4,2.2,4.4,5.1c0,2.8-1.6,5.1-4.4,5.1
				c-1.8,0-3-1.1-3.5-2.3V694.9z M381.1,686.7c0,2.1,1.3,3.3,3.1,3.3c1.9,0,2.9-1.4,2.9-3.6c0-2.2-1-3.6-2.9-3.6
				c-1.7,0-3.1,1.2-3.1,3.3V686.7z"/>
			<path d="M390.9,677.4h1.9v2.1h-1.9V677.4z M392.7,681.6v9.6h-1.8v-9.6H392.7z"/>
			<path d="M397,691.2h-1.8v-9.6h1.8v1.7c0.5-1.2,1.8-2,3.2-2c2.5,0,3.5,1.7,3.5,3.9v6h-1.8v-5.8c0-1.6-0.8-2.6-2.3-2.6
				c-1.5,0-2.6,1.1-2.6,2.9V691.2z"/>
			<path d="M410,687.9c-0.8,0-1.5-0.1-2.1-0.4c-0.3,0.2-0.6,0.5-0.6,0.9c0,0.5,0.3,0.8,1.2,0.8h3.8c2.1,0,3.2,1.1,3.2,2.6
				c0,2.4-2.7,3.3-5.5,3.3c-2.6,0-4.8-0.8-4.8-2.6c0-1.1,0.8-1.8,2-2c-0.9-0.3-1.3-0.9-1.3-1.7c0-0.8,0.6-1.4,1.5-1.8
				c-0.8-0.6-1.3-1.4-1.3-2.5c0-2,1.7-3.3,4-3.3c1.2,0,2.3,0.4,3,1c0.5-0.8,1.4-1.3,2.4-1.3v1.6c-0.6,0-1.4,0.2-1.8,0.4
				c0.3,0.5,0.5,1,0.5,1.6C414.1,686.6,412.4,687.9,410,687.9z M409.8,694c2.2,0,3.8-0.5,3.8-1.9c0-0.9-0.7-1.2-1.8-1.2h-3.1
				c-1,0-1.8,0.3-1.8,1.4C406.8,693.4,408,694,409.8,694z M410,682.5c-1.3,0-2.2,0.7-2.2,2.1c0,1.3,0.8,2.1,2.2,2.1
				c1.4,0,2.2-0.7,2.2-2.1C412.2,683.3,411.4,682.5,410,682.5z"/>
			<path d="M431.9,681.3c2.5,0,3.4,1.7,3.4,3.9v6h-1.8v-5.8c0-1.6-0.7-2.6-2.1-2.6c-1.4,0-2.5,1.1-2.5,2.9v5.5h-1.8v-5.8
				c0-1.6-0.7-2.6-2.1-2.6c-1.4,0-2.4,1.1-2.4,2.9v5.5h-1.8v-9.6h1.8v1.7c0.5-1.2,1.6-2,3.1-2c1.7,0,2.7,0.8,3.1,2.1
				C429.2,682.2,430.4,681.3,431.9,681.3z"/>
			<path d="M446.5,688c-0.5,2.2-2.1,3.5-4.5,3.5c-2.9,0-5-1.9-5-4.9c0-3,2.1-5.2,4.9-5.2c3.1,0,4.6,2.2,4.6,4.8v0.7h-7.7
				c0.1,1.9,1.4,3.2,3.1,3.2c1.6,0,2.6-0.8,2.9-2.2L446.5,688z M444.7,685.7c-0.1-1.5-0.9-2.9-2.8-2.9c-1.7,0-2.8,1.4-3,2.9H444.7z"
				/>
		</g>
		<g class="st1">
			<path d="M311.6,704.3c2.8,0,4.3,1.9,4.5,4.2l-1.6,0.1c-0.2-1.7-1.2-2.8-2.9-2.8c-1.8,0-3,1.4-3,3.6c0,2.2,1.2,3.6,3,3.6
				c1.8,0,2.8-1.2,2.9-2.9l1.6,0.2c-0.2,2.3-1.7,4.2-4.5,4.2c-2.9,0-4.9-2-4.9-5.1S308.7,704.3,311.6,704.3z"/>
			<path d="M322.4,714.5c-2.8,0-4.9-2.1-4.9-5.1s2.1-5.1,4.9-5.1c2.8,0,4.9,2.1,4.9,5.1S325.2,714.5,322.4,714.5z M322.4,713.1
				c2,0,3.1-1.5,3.1-3.7c0-2.2-1.1-3.7-3.1-3.7c-1.9,0-3,1.5-3,3.7C319.4,711.6,320.4,713.1,322.4,713.1z"/>
		</g>
		<g class="st1">
			<path d="M336.5,712.2c-0.4,1.2-1.7,2.3-3.5,2.3c-2.9,0-4.4-2.2-4.4-5.1c0-2.8,1.5-5.1,4.4-5.1c1.8,0,3,1.1,3.5,2.3v-6.3h1.8v13.9
				h-1.8V712.2z M336.5,709.1c0-2.1-1.3-3.3-3.1-3.3c-1.9,0-2.9,1.4-2.9,3.6c0,2.2,1.1,3.6,2.9,3.6c1.7,0,3.1-1.2,3.1-3.3V709.1z"/>
			<path d="M349.6,711c-0.5,2.2-2.1,3.5-4.5,3.5c-2.9,0-5-1.9-5-4.9c0-3,2.1-5.2,4.9-5.2c3.1,0,4.6,2.2,4.6,4.8v0.7H342
				c0.1,1.9,1.4,3.2,3.1,3.2c1.6,0,2.6-0.8,2.9-2.2L349.6,711z M347.8,708.7c-0.1-1.5-0.9-2.9-2.8-2.9c-1.7,0-2.8,1.4-3,2.9H347.8z"
				/>
			<path d="M355.9,705.9h-1.5v-1l0.6-0.1c0.9-0.2,1.1-0.6,1.3-1.5l0.3-1.3h1v2.7h2.7v1.3h-2.7v5.8c0,0.9,0.4,1.3,1.2,1.3
				c0.6,0,1.3-0.3,1.8-0.6v1.2c-0.7,0.5-1.4,0.8-2.5,0.8c-1.4,0-2.3-0.6-2.3-2.5V705.9z"/>
			<path d="M364.1,714.2h-1.8v-13.9h1.8v6c0.5-1.2,1.8-2,3.2-2c2.5,0,3.5,1.7,3.5,3.9v6H369v-5.8c0-1.6-0.8-2.6-2.3-2.6
				c-1.5,0-2.6,1.1-2.6,2.9V714.2z"/>
			<path d="M373.1,700.4h1.9v2.1h-1.9V700.4z M375,704.6v9.6h-1.8v-9.6H375z"/>
			<path d="M378.3,710.9c0.2,1.5,1.2,2.3,2.9,2.3c1.3,0,2.2-0.5,2.2-1.4c0-0.9-0.6-1.2-1.8-1.4L380,710c-1.8-0.3-2.9-1.1-2.9-2.7
				c0-1.8,1.5-2.9,3.7-2.9c2.6,0,4,1.2,4.2,3.4l-1.5,0.1c-0.2-1.5-1.1-2.2-2.8-2.2c-1.2,0-2,0.6-2,1.4c0,0.8,0.5,1.2,1.5,1.3
				l1.8,0.3c1.9,0.3,3.1,1.1,3.1,2.8c0,1.9-1.7,2.9-3.9,2.9c-2.4,0-4.2-1.1-4.4-3.5L378.3,710.9z"/>
			<path d="M391.8,710.9c0.2,1.5,1.2,2.3,2.9,2.3c1.3,0,2.2-0.5,2.2-1.4c0-0.9-0.6-1.2-1.8-1.4l-1.6-0.3c-1.8-0.3-2.9-1.1-2.9-2.7
				c0-1.8,1.5-2.9,3.7-2.9c2.6,0,4,1.2,4.2,3.4l-1.5,0.1c-0.2-1.5-1.1-2.2-2.8-2.2c-1.2,0-2,0.6-2,1.4c0,0.8,0.5,1.2,1.5,1.3
				l1.8,0.3c1.9,0.3,3.1,1.1,3.1,2.8c0,1.9-1.7,2.9-3.9,2.9c-2.4,0-4.2-1.1-4.4-3.5L391.8,710.9z"/>
			<path d="M400.5,700.4h1.9v2.1h-1.9V700.4z M402.3,704.6v9.6h-1.8v-9.6H402.3z"/>
		</g>
		<g class="st1">
			<path d="M405.1,705.9h-1.5v-1l0.6-0.1c0.9-0.2,1.1-0.6,1.3-1.5l0.3-1.3h1v2.7h2.7v1.3h-2.7v5.8c0,0.9,0.4,1.3,1.2,1.3
				c0.6,0,1.3-0.3,1.8-0.6v1.2c-0.7,0.5-1.4,0.8-2.5,0.8c-1.4,0-2.3-0.6-2.3-2.5V705.9z"/>
		</g>
		<g class="st1">
			<path d="M420.3,711c-0.5,2.2-2.1,3.5-4.5,3.5c-2.9,0-5-1.9-5-4.9c0-3,2.1-5.2,4.9-5.2c3.1,0,4.6,2.2,4.6,4.8v0.7h-7.7
				c0.1,1.9,1.4,3.2,3.1,3.2c1.6,0,2.6-0.8,2.9-2.2L420.3,711z M418.5,708.7c-0.1-1.5-0.9-2.9-2.8-2.9c-1.7,0-2.8,1.4-3,2.9H418.5z"
				/>
		</g>
		<g class="st1">
			<path d="M421.6,712h2.2v2.2h-2.2V712z"/>
		</g>
		<g class="st1">
			<path d="M167.8,917.2c-0.3-0.4-0.5-1.4-0.6-3c-0.1-1.5-0.8-2.6-2.7-2.6h-3.9v5.6h-1.9v-13.9h5.6c3.5,0,5.2,1.6,5.2,4.1
				c0,2.1-1.5,3.3-3.1,3.5c1.7,0.3,2.5,1.4,2.6,3c0.2,2,0.2,2.8,0.7,3.3H167.8z M164.2,910.1c2.4,0,3.4-0.9,3.4-2.6
				c0-1.6-1.1-2.6-3.4-2.6h-3.7v5.2H164.2z"/>
			<path d="M171.8,903.4h1.9v2.1h-1.9V903.4z M173.6,907.6v9.6h-1.8v-9.6H173.6z"/>
			<path d="M180.4,907.3c2.8,0,4.3,1.9,4.5,4.2l-1.6,0.1c-0.2-1.7-1.2-2.8-2.9-2.8c-1.8,0-3,1.4-3,3.6c0,2.2,1.2,3.6,3,3.6
				c1.8,0,2.8-1.2,2.9-2.9l1.6,0.2c-0.2,2.3-1.7,4.2-4.5,4.2c-2.9,0-4.9-2-4.9-5.1S177.5,907.3,180.4,907.3z"/>
			<path d="M188.7,917.2h-1.8v-13.9h1.8v6c0.5-1.2,1.8-2,3.2-2c2.5,0,3.5,1.7,3.5,3.9v6h-1.8v-5.8c0-1.6-0.8-2.6-2.3-2.6
				c-1.5,0-2.6,1.1-2.6,2.9V917.2z"/>
			<path d="M209.5,915.3c0,0.5,0.3,0.7,0.7,0.7c0.2,0,0.6-0.1,0.8-0.2v1c-0.3,0.3-0.7,0.6-1.5,0.6c-1,0-1.7-0.7-1.8-1.9
				c-0.5,1.1-1.9,2-3.5,2c-1.9,0-3.1-1-3.1-2.7c0-1.8,1.6-2.6,3.9-3l2.6-0.5v-0.4c0-1.3-0.8-2.1-2.1-2.1c-1.4,0-2.1,0.8-2.4,1.9
				l-1.6-0.2c0.4-1.8,1.8-3.1,4.1-3.1c2.4,0,3.9,1.2,3.9,3.7V915.3z M207.7,912.5l-2.2,0.5c-1.5,0.3-2.5,0.6-2.5,1.8
				c0,0.8,0.6,1.4,1.7,1.4c1.7,0,3-1.3,3-3.2V912.5z"/>
			<path d="M214.3,917.2h-1.8v-9.6h1.8v1.7c0.5-1.2,1.8-2,3.2-2c2.5,0,3.5,1.7,3.5,3.9v6h-1.8v-5.8c0-1.6-0.8-2.6-2.3-2.6
				c-1.5,0-2.6,1.1-2.6,2.9V917.2z"/>
			<path d="M230.6,915.2c-0.4,1.2-1.7,2.3-3.5,2.3c-2.9,0-4.4-2.2-4.4-5.1c0-2.8,1.5-5.1,4.4-5.1c1.8,0,3,1.1,3.5,2.3v-6.3h1.8v13.9
				h-1.8V915.2z M230.6,912.1c0-2.1-1.3-3.3-3.1-3.3c-1.9,0-2.9,1.4-2.9,3.6c0,2.2,1.1,3.6,2.9,3.6c1.7,0,3.1-1.2,3.1-3.3V912.1z"/>
		</g>
		<g class="st1">
			<path d="M240.9,903.4v12.3h7.7v1.6H239v-13.9H240.9z"/>
		</g>
		<g class="st1">
			<path d="M254.4,917.5c-2.8,0-4.9-2.1-4.9-5.1s2.1-5.1,4.9-5.1c2.8,0,4.9,2.1,4.9,5.1S257.3,917.5,254.4,917.5z M254.4,916.1
				c2,0,3.1-1.5,3.1-3.7c0-2.2-1.1-3.7-3.1-3.7c-1.9,0-3,1.5-3,3.7C251.4,914.6,252.5,916.1,254.4,916.1z"/>
			<path d="M267,909.4c-0.5-0.3-0.9-0.4-1.5-0.4c-1.4,0-2.4,1.3-2.4,3.1v5.1h-1.8v-9.6h1.8v2c0.4-1.1,1.3-2.2,2.7-2.2
				c0.6,0,1,0.2,1.4,0.4L267,909.4z"/>
			<path d="M268.5,903.4h1.9v2.1h-1.9V903.4z M270.4,907.6v9.6h-1.8v-9.6H270.4z"/>
			<path d="M273.7,913.9c0.2,1.5,1.2,2.3,2.9,2.3c1.3,0,2.2-0.5,2.2-1.4c0-0.9-0.6-1.2-1.8-1.4l-1.6-0.3c-1.8-0.3-2.9-1.1-2.9-2.7
				c0-1.8,1.5-2.9,3.7-2.9c2.6,0,4,1.2,4.2,3.4l-1.5,0.1c-0.2-1.5-1.1-2.2-2.8-2.2c-1.2,0-2,0.6-2,1.4c0,0.8,0.5,1.2,1.5,1.3
				l1.8,0.3c1.9,0.3,3.1,1.1,3.1,2.8c0,1.9-1.7,2.9-3.9,2.9c-2.4,0-4.2-1.1-4.4-3.5L273.7,913.9z"/>
		</g>
		<g class="st1">
			<path d="M285.2,908.9v-1.3h1.5v-1.1c0-2,1.2-3.4,3.2-3.4c1.7,0,2.6,0.7,3,2.2l-1.3,0.4c-0.2-0.7-0.8-1.3-1.7-1.3
				c-1,0-1.5,0.7-1.5,1.9v1.3h2.7v1.3h-2.7v8.3h-1.8v-8.3H285.2z"/>
		</g>
		<g class="st1">
			<path d="M296.7,917.5c-2.8,0-4.9-2.1-4.9-5.1s2.1-5.1,4.9-5.1c2.8,0,4.9,2.1,4.9,5.1S299.5,917.5,296.7,917.5z M296.7,916.1
				c2,0,3.1-1.5,3.1-3.7c0-2.2-1.1-3.7-3.1-3.7c-1.9,0-3,1.5-3,3.7C293.7,914.6,294.7,916.1,296.7,916.1z"/>
			<path d="M309.2,909.4c-0.5-0.3-0.9-0.4-1.5-0.4c-1.4,0-2.4,1.3-2.4,3.1v5.1h-1.8v-9.6h1.8v2c0.4-1.1,1.3-2.2,2.7-2.2
				c0.6,0,1,0.2,1.4,0.4L309.2,909.4z"/>
		</g>
		<g class="st1">
			<path d="M153.5,940.2h-1.8v-13.9h1.8v6c0.5-1.2,1.8-2,3.2-2c2.5,0,3.5,1.7,3.5,3.9v6h-1.8v-5.8c0-1.6-0.8-2.6-2.3-2.6
				c-1.5,0-2.6,1.1-2.6,2.9V940.2z"/>
			<path d="M171.4,937c-0.5,2.2-2.1,3.5-4.5,3.5c-2.9,0-5-1.9-5-4.9c0-3,2.1-5.2,4.9-5.2c3.1,0,4.6,2.2,4.6,4.8v0.7h-7.7
				c0.1,1.9,1.4,3.2,3.1,3.2c1.6,0,2.6-0.8,2.9-2.2L171.4,937z M169.5,934.7c-0.1-1.5-0.9-2.9-2.8-2.9c-1.7,0-2.8,1.4-3,2.9H169.5z"
				/>
			<path d="M175.1,926.4v13.9h-1.8v-13.9H175.1z"/>
			<path d="M179.4,943.9h-1.8v-13.3h1.8v2c0.4-1.2,1.6-2.3,3.5-2.3c2.8,0,4.4,2.2,4.4,5.1c0,2.8-1.6,5.1-4.4,5.1
				c-1.8,0-3-1.1-3.5-2.3V943.9z M179.4,935.7c0,2.1,1.3,3.3,3.1,3.3c1.9,0,2.9-1.4,2.9-3.6c0-2.2-1-3.6-2.9-3.6
				c-1.7,0-3.1,1.2-3.1,3.3V935.7z"/>
			<path d="M189.1,926.4h1.9v2.1h-1.9V926.4z M191,930.6v9.6h-1.8v-9.6H191z"/>
			<path d="M195.3,940.2h-1.8v-9.6h1.8v1.7c0.5-1.2,1.8-2,3.2-2c2.5,0,3.5,1.7,3.5,3.9v6h-1.8v-5.8c0-1.6-0.8-2.6-2.3-2.6
				c-1.5,0-2.6,1.1-2.6,2.9V940.2z"/>
			<path d="M208.3,936.9c-0.8,0-1.5-0.1-2.1-0.4c-0.3,0.2-0.6,0.5-0.6,0.9c0,0.5,0.3,0.8,1.2,0.8h3.8c2.1,0,3.2,1.1,3.2,2.6
				c0,2.4-2.7,3.3-5.5,3.3c-2.6,0-4.8-0.8-4.8-2.6c0-1.1,0.8-1.8,2-2c-0.9-0.3-1.3-0.9-1.3-1.7c0-0.8,0.6-1.4,1.5-1.8
				c-0.8-0.6-1.3-1.4-1.3-2.5c0-2,1.7-3.3,4-3.3c1.2,0,2.3,0.4,3,1c0.5-0.8,1.4-1.3,2.4-1.3v1.6c-0.6,0-1.4,0.2-1.8,0.4
				c0.3,0.5,0.5,1,0.5,1.6C212.3,935.6,210.6,936.9,208.3,936.9z M208.1,943c2.2,0,3.8-0.5,3.8-1.9c0-0.9-0.7-1.2-1.8-1.2h-3.1
				c-1,0-1.8,0.3-1.8,1.4C205.1,942.4,206.3,943,208.1,943z M208.3,931.5c-1.3,0-2.2,0.7-2.2,2.1c0,1.3,0.8,2.1,2.2,2.1
				c1.4,0,2.2-0.7,2.2-2.1C210.5,932.3,209.6,931.5,208.3,931.5z"/>
			<path d="M230.2,930.3c2.5,0,3.4,1.7,3.4,3.9v6h-1.8v-5.8c0-1.6-0.7-2.6-2.1-2.6c-1.4,0-2.5,1.1-2.5,2.9v5.5h-1.8v-5.8
				c0-1.6-0.7-2.6-2.1-2.6c-1.4,0-2.4,1.1-2.4,2.9v5.5h-1.8v-9.6h1.8v1.7c0.5-1.2,1.6-2,3.1-2c1.7,0,2.7,0.8,3.1,2.1
				C227.5,931.2,228.7,930.3,230.2,930.3z"/>
			<path d="M244.8,937c-0.5,2.2-2.1,3.5-4.5,3.5c-2.9,0-5-1.9-5-4.9c0-3,2.1-5.2,4.9-5.2c3.1,0,4.6,2.2,4.6,4.8v0.7h-7.7
				c0.1,1.9,1.4,3.2,3.1,3.2c1.6,0,2.6-0.8,2.9-2.2L244.8,937z M243,934.7c-0.1-1.5-0.9-2.9-2.8-2.9c-1.7,0-2.8,1.4-3,2.9H243z"/>
			<path d="M259.4,937.9L259.4,937.9l2.3-7.3h1.7l-3.1,9.6h-1.8l-2-7.2h-0.1l-2,7.2h-1.8l-3.1-9.6h1.8l2.3,7.3h0.1l2-7.3h1.5
				L259.4,937.9z"/>
			<path d="M264.8,926.4h1.9v2.1h-1.9V926.4z M266.6,930.6v9.6h-1.8v-9.6H266.6z"/>
			<path d="M269.5,931.9H268v-1l0.6-0.1c0.9-0.2,1.1-0.6,1.3-1.5l0.3-1.3h1v2.7h2.7v1.3h-2.7v5.8c0,0.9,0.4,1.3,1.2,1.3
				c0.6,0,1.3-0.3,1.8-0.6v1.2c-0.7,0.5-1.4,0.8-2.5,0.8c-1.4,0-2.3-0.6-2.3-2.5V931.9z"/>
			<path d="M277.7,940.2h-1.8v-13.9h1.8v6c0.5-1.2,1.8-2,3.2-2c2.5,0,3.5,1.7,3.5,3.9v6h-1.8v-5.8c0-1.6-0.8-2.6-2.3-2.6
				c-1.5,0-2.6,1.1-2.6,2.9V940.2z"/>
		</g>
		<g class="st1">
			<path d="M302,930.3c2.5,0,3.4,1.7,3.4,3.9v6h-1.8v-5.8c0-1.6-0.7-2.6-2.1-2.6c-1.4,0-2.5,1.1-2.5,2.9v5.5h-1.8v-5.8
				c0-1.6-0.7-2.6-2.1-2.6c-1.4,0-2.4,1.1-2.4,2.9v5.5h-1.8v-9.6h1.8v1.7c0.5-1.2,1.6-2,3.1-2c1.7,0,2.7,0.8,3.1,2.1
				C299.3,931.2,300.5,930.3,302,930.3z"/>
		</g>
		<g class="st1">
			<path d="M309.1,943.9l1.6-3.7l-4-9.6h1.9l3.1,7.4h0.1l2.9-7.4h1.8l-5.5,13.3H309.1z"/>
		</g>
		<g class="st1">
			<path d="M144.2,963.5c-2.8,0-4.9-2.1-4.9-5.1s2.1-5.1,4.9-5.1c2.8,0,4.9,2.1,4.9,5.1S147.1,963.5,144.2,963.5z M144.2,962.1
				c2,0,3.1-1.5,3.1-3.7c0-2.2-1.1-3.7-3.1-3.7c-1.9,0-3,1.5-3,3.7C141.2,960.6,142.3,962.1,144.2,962.1z"/>
		</g>
		<g class="st1">
			<path d="M158.4,961.2c-0.4,1.2-1.7,2.3-3.5,2.3c-2.9,0-4.4-2.2-4.4-5.1c0-2.8,1.5-5.1,4.4-5.1c1.8,0,3,1.1,3.5,2.3v-6.3h1.8v13.9
				h-1.8V961.2z M158.4,958.1c0-2.1-1.3-3.3-3.1-3.3c-1.9,0-2.9,1.4-2.9,3.6c0,2.2,1.1,3.6,2.9,3.6c1.7,0,3.1-1.2,3.1-3.3V958.1z"/>
			<path d="M169.9,961.2c-0.4,1.2-1.7,2.3-3.5,2.3c-2.9,0-4.4-2.2-4.4-5.1c0-2.8,1.5-5.1,4.4-5.1c1.8,0,3,1.1,3.5,2.3v-6.3h1.8v13.9
				h-1.8V961.2z M169.9,958.1c0-2.1-1.3-3.3-3.1-3.3c-1.9,0-2.9,1.4-2.9,3.6c0,2.2,1.1,3.6,2.9,3.6c1.7,0,3.1-1.2,3.1-3.3V958.1z"/>
			<path d="M180,966.9h-1.8v-13.3h1.8v2c0.4-1.2,1.6-2.3,3.5-2.3c2.8,0,4.4,2.2,4.4,5.1c0,2.8-1.6,5.1-4.4,5.1c-1.8,0-3-1.1-3.5-2.3
				V966.9z M180,958.7c0,2.1,1.3,3.3,3.1,3.3c1.9,0,2.9-1.4,2.9-3.6c0-2.2-1-3.6-2.9-3.6c-1.7,0-3.1,1.2-3.1,3.3V958.7z"/>
			<path d="M195.5,955.4c-0.5-0.3-0.9-0.4-1.5-0.4c-1.4,0-2.4,1.3-2.4,3.1v5.1h-1.8v-9.6h1.8v2c0.4-1.1,1.3-2.2,2.7-2.2
				c0.6,0,1,0.2,1.4,0.4L195.5,955.4z"/>
			<path d="M197,949.4h1.9v2.1H197V949.4z M198.9,953.6v9.6H197v-9.6H198.9z"/>
			<path d="M203.2,963.2h-1.8v-9.6h1.8v1.7c0.5-1.2,1.8-2,3.2-2c2.5,0,3.5,1.7,3.5,3.9v6h-1.8v-5.8c0-1.6-0.8-2.6-2.3-2.6
				c-1.5,0-2.6,1.1-2.6,2.9V963.2z"/>
			<path d="M212.6,954.9h-1.5v-1l0.6-0.1c0.9-0.2,1.1-0.6,1.3-1.5l0.3-1.3h1v2.7h2.7v1.3h-2.7v5.8c0,0.9,0.4,1.3,1.2,1.3
				c0.6,0,1.3-0.3,1.8-0.6v1.2c-0.7,0.5-1.4,0.8-2.5,0.8c-1.4,0-2.3-0.6-2.3-2.5V954.9z"/>
			<path d="M218.9,949.4h1.9v2.1h-1.9V949.4z M220.8,953.6v9.6H219v-9.6H220.8z"/>
			<path d="M225.1,963.2h-1.8v-9.6h1.8v1.7c0.5-1.2,1.8-2,3.2-2c2.5,0,3.5,1.7,3.5,3.9v6H230v-5.8c0-1.6-0.8-2.6-2.3-2.6
				c-1.5,0-2.6,1.1-2.6,2.9V963.2z"/>
			<path d="M238.1,959.9c-0.8,0-1.5-0.1-2.1-0.4c-0.3,0.2-0.6,0.5-0.6,0.9c0,0.5,0.3,0.8,1.2,0.8h3.8c2.1,0,3.2,1.1,3.2,2.6
				c0,2.4-2.7,3.3-5.5,3.3c-2.6,0-4.8-0.8-4.8-2.6c0-1.1,0.8-1.8,2-2c-0.9-0.3-1.3-0.9-1.3-1.7c0-0.8,0.6-1.4,1.5-1.8
				c-0.8-0.6-1.3-1.4-1.3-2.5c0-2,1.7-3.3,4-3.3c1.2,0,2.3,0.4,3,1c0.5-0.8,1.4-1.3,2.4-1.3v1.6c-0.6,0-1.4,0.2-1.8,0.4
				c0.3,0.5,0.5,1,0.5,1.6C242.1,958.6,240.4,959.9,238.1,959.9z M237.9,966c2.2,0,3.8-0.5,3.8-1.9c0-0.9-0.7-1.2-1.8-1.2h-3.1
				c-1,0-1.8,0.3-1.8,1.4C234.9,965.4,236.1,966,237.9,966z M238.1,954.5c-1.3,0-2.2,0.7-2.2,2.1c0,1.3,0.8,2.1,2.2,2.1
				c1.4,0,2.2-0.7,2.2-2.1C240.3,955.3,239.5,954.5,238.1,954.5z"/>
		</g>
		<g class="st1">
			<path d="M254.5,955.4c-0.5-0.3-0.9-0.4-1.5-0.4c-1.4,0-2.4,1.3-2.4,3.1v5.1h-1.8v-9.6h1.8v2c0.4-1.1,1.3-2.2,2.7-2.2
				c0.6,0,1,0.2,1.4,0.4L254.5,955.4z"/>
		</g>
		<g class="st1">
			<path d="M264.6,960c-0.5,2.2-2.1,3.5-4.5,3.5c-2.9,0-5-1.9-5-4.9c0-3,2.1-5.2,4.9-5.2c3.1,0,4.6,2.2,4.6,4.8v0.7h-7.7
				c0.1,1.9,1.4,3.2,3.1,3.2c1.6,0,2.6-0.8,2.9-2.2L264.6,960z M262.7,957.7c-0.1-1.5-0.9-2.9-2.8-2.9c-1.7,0-2.8,1.4-3,2.9H262.7z"
				/>
		</g>
		<g class="st1">
			<path d="M273.8,961.2c-0.4,1.2-1.7,2.3-3.5,2.3c-2.9,0-4.4-2.2-4.4-5.1c0-2.8,1.5-5.1,4.4-5.1c1.8,0,3,1.1,3.5,2.3v-2h1.8v13.3
				h-1.8V961.2z M273.8,958.1c0-2.1-1.3-3.3-3.1-3.3c-1.9,0-2.9,1.4-2.9,3.6c0,2.2,1.1,3.6,2.9,3.6c1.7,0,3.1-1.2,3.1-3.3V958.1z"/>
			<path d="M284.6,953.6h1.8v9.6h-1.8v-1.7c-0.5,1.1-1.7,2-3.1,2c-2.5,0-3.4-1.6-3.4-3.9v-6h1.8v5.8c0,1.6,0.7,2.6,2.2,2.6
				c1.4,0,2.5-1.1,2.5-2.9V953.6z"/>
		</g>
		<g class="st1">
			<path d="M297.7,960c-0.5,2.2-2.1,3.5-4.5,3.5c-2.9,0-5-1.9-5-4.9c0-3,2.1-5.2,4.9-5.2c3.1,0,4.6,2.2,4.6,4.8v0.7h-7.7
				c0.1,1.9,1.4,3.2,3.1,3.2c1.6,0,2.6-0.8,2.9-2.2L297.7,960z M295.9,957.7c-0.1-1.5-0.9-2.9-2.8-2.9c-1.7,0-2.8,1.4-3,2.9H295.9z"
				/>
		</g>
		<g class="st1">
			<path d="M300.6,959.9c0.2,1.5,1.2,2.3,2.9,2.3c1.3,0,2.2-0.5,2.2-1.4c0-0.9-0.6-1.2-1.8-1.4l-1.6-0.3c-1.8-0.3-2.9-1.1-2.9-2.7
				c0-1.8,1.5-2.9,3.7-2.9c2.6,0,4,1.2,4.2,3.4l-1.5,0.1c-0.2-1.5-1.1-2.2-2.8-2.2c-1.2,0-2,0.6-2,1.4c0,0.8,0.5,1.2,1.5,1.3
				l1.8,0.3c1.9,0.3,3.1,1.1,3.1,2.8c0,1.9-1.7,2.9-3.9,2.9c-2.4,0-4.2-1.1-4.4-3.5L300.6,959.9z"/>
			<path d="M309.6,954.9h-1.5v-1l0.6-0.1c0.9-0.2,1.1-0.6,1.3-1.5l0.3-1.3h1v2.7h2.7v1.3h-2.7v5.8c0,0.9,0.4,1.3,1.2,1.3
				c0.6,0,1.3-0.3,1.8-0.6v1.2c-0.7,0.5-1.4,0.8-2.5,0.8c-1.4,0-2.3-0.6-2.3-2.5V954.9z"/>
		</g>
		<g class="st1">
			<path d="M316.9,959.9c0.2,1.5,1.2,2.3,2.9,2.3c1.3,0,2.2-0.5,2.2-1.4c0-0.9-0.6-1.2-1.8-1.4l-1.6-0.3c-1.8-0.3-2.9-1.1-2.9-2.7
				c0-1.8,1.5-2.9,3.7-2.9c2.6,0,4,1.2,4.2,3.4l-1.5,0.1c-0.2-1.5-1.1-2.2-2.8-2.2c-1.2,0-2,0.6-2,1.4c0,0.8,0.5,1.2,1.5,1.3
				l1.8,0.3c1.9,0.3,3.1,1.1,3.1,2.8c0,1.9-1.7,2.9-3.9,2.9c-2.4,0-4.2-1.1-4.4-3.5L316.9,959.9z"/>
		</g>
		<g class="st1">
			<path d="M325.2,961h2.2v2.2h-2.2V961z"/>
		</g>
		<g class="st1">
			<path d="M57.9,453.5H52v-13.9h5.7c3.4,0,4.8,1.5,4.8,3.7c0,1.6-1.1,2.7-2.6,3c1.7,0.3,3,1.4,3,3.4
				C62.9,452.1,61.2,453.5,57.9,453.5z M53.9,445.6h3.9c2,0,2.9-0.9,2.9-2.2c0-1.3-0.9-2.2-2.9-2.2h-3.9V445.6z M53.9,447.1v4.8h4
				c2.1,0,3.1-0.9,3.1-2.4c0-1.5-1.1-2.4-3.1-2.4H53.9z"/>
		</g>
		<g class="st1">
			<path d="M73.9,450.2c-0.5,2.2-2.1,3.5-4.5,3.5c-2.9,0-5-1.9-5-4.9c0-3,2.1-5.2,4.9-5.2c3.1,0,4.6,2.2,4.6,4.8v0.7h-7.7
				c0.1,1.9,1.4,3.2,3.1,3.2c1.6,0,2.6-0.8,2.9-2.2L73.9,450.2z M72,447.9c-0.1-1.5-0.9-2.9-2.8-2.9c-1.7,0-2.8,1.4-3,2.9H72z"/>
			<path d="M76.1,445.2h-1.5v-1l0.6-0.1c0.9-0.2,1.1-0.6,1.3-1.5l0.3-1.3h1v2.7h2.7v1.3h-2.7v5.8c0,0.9,0.4,1.3,1.2,1.3
				c0.6,0,1.3-0.3,1.8-0.6v1.2c-0.7,0.5-1.4,0.8-2.5,0.8c-1.4,0-2.3-0.6-2.3-2.5V445.2z"/>
			<path d="M84.4,453.5h-1.8v-13.9h1.8v6c0.5-1.2,1.8-2,3.2-2c2.5,0,3.5,1.7,3.5,3.9v6h-1.8v-5.8c0-1.6-0.8-2.6-2.3-2.6
				c-1.5,0-2.6,1.1-2.6,2.9V453.5z"/>
			<path d="M101.2,451.6c0,0.5,0.3,0.7,0.7,0.7c0.2,0,0.6-0.1,0.8-0.2v1c-0.3,0.3-0.7,0.6-1.5,0.6c-1,0-1.7-0.7-1.8-1.9
				c-0.5,1.1-1.9,2-3.5,2c-1.9,0-3.1-1-3.1-2.7c0-1.8,1.6-2.6,3.9-3l2.6-0.5v-0.4c0-1.3-0.8-2.1-2.1-2.1c-1.4,0-2.1,0.8-2.4,1.9
				l-1.6-0.2c0.4-1.8,1.8-3.1,4.1-3.1c2.4,0,3.9,1.2,3.9,3.7V451.6z M99.4,448.7l-2.2,0.5c-1.5,0.3-2.5,0.6-2.5,1.8
				c0,0.8,0.6,1.4,1.7,1.4c1.7,0,3-1.3,3-3.2V448.7z"/>
		</g>
		<g class="st1">
			<path d="M106,453.5h-1.8v-9.6h1.8v1.7c0.5-1.2,1.8-2,3.2-2c2.5,0,3.5,1.7,3.5,3.9v6h-1.8v-5.8c0-1.6-0.8-2.6-2.3-2.6
				c-1.5,0-2.6,1.1-2.6,2.9V453.5z"/>
		</g>
		<g class="st1">
			<path d="M116.4,457.2l1.6-3.7l-4-9.6h1.9l3.1,7.4h0.1l2.9-7.4h1.8l-5.5,13.3H116.4z"/>
		</g>
		<g class="st1">
			<path d="M123.8,451.3h2.2v2.2c0,1.5-0.4,2.4-2.2,2.5v-1.1c0.8-0.1,1-0.4,1-1.3h-1V451.3z"/>
			<path d="M140.8,439.6v9.1c0,3.3-1.9,5-4.8,5c-2.9,0-4.8-1.7-5-5l1.8-0.1c0.2,2.2,1.2,3.6,3.2,3.6c2,0,2.9-1.1,2.9-3.5v-9.1H140.8
				z"/>
			<path d="M147.5,453.7c-2.8,0-4.9-2.1-4.9-5.1s2.1-5.1,4.9-5.1c2.8,0,4.9,2.1,4.9,5.1S150.3,453.7,147.5,453.7z M147.5,452.3
				c2,0,3.1-1.5,3.1-3.7c0-2.2-1.1-3.7-3.1-3.7c-1.9,0-3,1.5-3,3.7C144.5,450.8,145.6,452.3,147.5,452.3z"/>
			<path d="M156.2,453.5h-1.8v-13.9h1.8v6c0.5-1.2,1.8-2,3.2-2c2.5,0,3.5,1.7,3.5,3.9v6H161v-5.8c0-1.6-0.8-2.6-2.3-2.6
				c-1.5,0-2.6,1.1-2.6,2.9V453.5z"/>
			<path d="M167.1,453.5h-1.8v-9.6h1.8v1.7c0.5-1.2,1.8-2,3.2-2c2.5,0,3.5,1.7,3.5,3.9v6h-1.8v-5.8c0-1.6-0.8-2.6-2.3-2.6
				c-1.5,0-2.6,1.1-2.6,2.9V453.5z"/>
			<path d="M187.9,451.6c0,0.5,0.3,0.7,0.7,0.7c0.2,0,0.6-0.1,0.8-0.2v1c-0.3,0.3-0.7,0.6-1.5,0.6c-1,0-1.7-0.7-1.8-1.9
				c-0.5,1.1-1.9,2-3.5,2c-1.9,0-3.1-1-3.1-2.7c0-1.8,1.6-2.6,3.9-3l2.6-0.5v-0.4c0-1.3-0.8-2.1-2.1-2.1c-1.4,0-2.1,0.8-2.4,1.9
				l-1.6-0.2c0.4-1.8,1.8-3.1,4.1-3.1c2.4,0,3.9,1.2,3.9,3.7V451.6z M186.1,448.7l-2.2,0.5c-1.5,0.3-2.5,0.6-2.5,1.8
				c0,0.8,0.6,1.4,1.7,1.4c1.7,0,3-1.3,3-3.2V448.7z"/>
			<path d="M192.7,453.5h-1.8v-9.6h1.8v1.7c0.5-1.2,1.8-2,3.2-2c2.5,0,3.5,1.7,3.5,3.9v6h-1.8v-5.8c0-1.6-0.8-2.6-2.3-2.6
				c-1.5,0-2.6,1.1-2.6,2.9V453.5z"/>
			<path d="M209,451.5c-0.4,1.2-1.7,2.3-3.5,2.3c-2.9,0-4.4-2.2-4.4-5.1c0-2.8,1.5-5.1,4.4-5.1c1.8,0,3,1.1,3.5,2.3v-6.3h1.8v13.9
				H209V451.5z M209,448.4c0-2.1-1.3-3.3-3.1-3.3c-1.9,0-2.9,1.4-2.9,3.6s1.1,3.6,2.9,3.6c1.7,0,3.1-1.2,3.1-3.3V448.4z"/>
		</g>
		<g class="st1">
			<path d="M62.3,476.5l-4.2-11.9H58v11.9h-1.8v-13.9h3.1l3.9,11.3h0.1l3.7-11.3h3v13.9H68v-11.9h-0.1l-4,11.9H62.3z"/>
			<path d="M72.5,462.6h1.9v2.1h-1.9V462.6z M74.3,466.8v9.6h-1.8v-9.6H74.3z"/>
			<path d="M81.1,466.6c2.8,0,4.3,1.9,4.5,4.2l-1.6,0.1c-0.2-1.7-1.2-2.8-2.9-2.8c-1.8,0-3,1.4-3,3.6c0,2.2,1.2,3.6,3,3.6
				c1.8,0,2.8-1.2,2.9-2.9l1.6,0.2c-0.2,2.3-1.7,4.2-4.5,4.2c-2.9,0-4.9-2-4.9-5.1S78.2,466.6,81.1,466.6z"/>
			<path d="M89.4,476.5h-1.8v-13.9h1.8v6c0.5-1.2,1.8-2,3.2-2c2.5,0,3.5,1.7,3.5,3.9v6h-1.8v-5.8c0-1.6-0.8-2.6-2.3-2.6
				c-1.5,0-2.6,1.1-2.6,2.9V476.5z"/>
			<path d="M107.3,473.2c-0.5,2.2-2.1,3.5-4.5,3.5c-2.9,0-5-1.9-5-4.9c0-3,2.1-5.2,4.9-5.2c3.1,0,4.6,2.2,4.6,4.8v0.7h-7.7
				c0.1,1.9,1.4,3.2,3.1,3.2c1.6,0,2.6-0.8,2.9-2.2L107.3,473.2z M105.5,470.9c-0.1-1.5-0.9-2.9-2.8-2.9c-1.7,0-2.8,1.4-3,2.9H105.5
				z"/>
			<path d="M111,462.6v13.9h-1.8v-13.9H111z"/>
			<path d="M115.4,462.6v13.9h-1.8v-13.9H115.4z"/>
			<path d="M126.7,473.2c-0.5,2.2-2.1,3.5-4.5,3.5c-2.9,0-5-1.9-5-4.9c0-3,2.1-5.2,4.9-5.2c3.1,0,4.6,2.2,4.6,4.8v0.7H119
				c0.1,1.9,1.4,3.2,3.1,3.2c1.6,0,2.6-0.8,2.9-2.2L126.7,473.2z M124.8,470.9c-0.1-1.5-0.9-2.9-2.8-2.9c-1.7,0-2.8,1.4-3,2.9H124.8
				z"/>
		</g>
		<g class="st1">
			<path d="M131.5,468.2v-1.3h1.5v-1.1c0-2,1.2-3.4,3.2-3.4c1.6,0,2.6,0.7,3,2.2l-1.3,0.4c-0.2-0.7-0.8-1.3-1.7-1.3
				c-1,0-1.5,0.7-1.5,1.9v1.3h2.7v1.3h-2.7v8.3h-1.8v-8.3H131.5z"/>
		</g>
		<g class="st1">
			<path d="M142.9,476.7c-2.8,0-4.9-2.1-4.9-5.1s2.1-5.1,4.9-5.1c2.8,0,4.9,2.1,4.9,5.1S145.8,476.7,142.9,476.7z M142.9,475.3
				c2,0,3.1-1.5,3.1-3.7c0-2.2-1.1-3.7-3.1-3.7c-1.9,0-3,1.5-3,3.7C139.9,473.8,141,475.3,142.9,475.3z"/>
			<path d="M155.5,468.7c-0.5-0.3-0.9-0.4-1.5-0.4c-1.4,0-2.4,1.3-2.4,3.1v5.1h-1.8v-9.6h1.8v2c0.4-1.1,1.3-2.2,2.7-2.2
				c0.6,0,1,0.2,1.4,0.4L155.5,468.7z"/>
		</g>
		<g class="st1">
			<path d="M162.4,476.5H161v-13.9h1.8v6.3c0.4-1.2,1.6-2.3,3.5-2.3c2.8,0,4.4,2.2,4.4,5.1c0,2.8-1.6,5.1-4.4,5.1
				c-1.8,0-3-1.1-3.5-2.3L162.4,476.5z M162.8,471.9c0,2.1,1.3,3.3,3.1,3.3c1.9,0,2.9-1.4,2.9-3.6s-1-3.6-2.9-3.6
				c-1.7,0-3.1,1.2-3.1,3.3V471.9z"/>
		</g>
		<g class="st1">
			<path d="M181.4,473.2c-0.5,2.2-2.1,3.5-4.5,3.5c-2.9,0-5-1.9-5-4.9c0-3,2.1-5.2,4.9-5.2c3.1,0,4.6,2.2,4.6,4.8v0.7h-7.7
				c0.1,1.9,1.4,3.2,3.1,3.2c1.6,0,2.6-0.8,2.9-2.2L181.4,473.2z M179.6,470.9c-0.1-1.5-0.9-2.9-2.8-2.9c-1.7,0-2.8,1.4-3,2.9H179.6
				z"/>
			<path d="M183.3,462.6h1.9v2.1h-1.9V462.6z M185.2,466.8v9.6h-1.8v-9.6H185.2z"/>
			<path d="M189.5,476.5h-1.8v-9.6h1.8v1.7c0.5-1.2,1.8-2,3.2-2c2.5,0,3.5,1.7,3.5,3.9v6h-1.8v-5.8c0-1.6-0.8-2.6-2.3-2.6
				c-1.5,0-2.6,1.1-2.6,2.9V476.5z"/>
			<path d="M202.4,473.1c-0.8,0-1.5-0.1-2.1-0.4c-0.3,0.2-0.6,0.5-0.6,0.9c0,0.5,0.3,0.8,1.2,0.8h3.8c2.1,0,3.2,1.1,3.2,2.6
				c0,2.4-2.7,3.3-5.5,3.3c-2.6,0-4.8-0.8-4.8-2.6c0-1.1,0.8-1.8,2-2c-0.9-0.3-1.3-0.9-1.3-1.7c0-0.8,0.6-1.4,1.5-1.8
				c-0.8-0.6-1.3-1.4-1.3-2.5c0-2,1.7-3.3,4-3.3c1.2,0,2.3,0.4,3,1c0.5-0.8,1.4-1.3,2.4-1.3v1.6c-0.6,0-1.4,0.2-1.8,0.4
				c0.3,0.5,0.5,1,0.5,1.6C206.5,471.9,204.8,473.1,202.4,473.1z M202.3,479.2c2.2,0,3.8-0.5,3.8-1.9c0-0.9-0.7-1.2-1.8-1.2h-3.1
				c-1,0-1.8,0.3-1.8,1.4C199.3,478.7,200.5,479.2,202.3,479.2z M202.5,467.8c-1.3,0-2.2,0.7-2.2,2.1c0,1.3,0.8,2.1,2.2,2.1
				c1.4,0,2.2-0.7,2.2-2.1C204.7,468.5,203.8,467.8,202.5,467.8z"/>
		</g>
		<g class="st1">
			<path d="M55.2,491.2h-1.5v-1l0.6-0.1c0.9-0.2,1.1-0.6,1.3-1.5l0.3-1.3h1v2.7h2.7v1.3H57v5.8c0,0.9,0.4,1.3,1.2,1.3
				c0.6,0,1.3-0.3,1.8-0.6v1.2c-0.7,0.5-1.4,0.8-2.5,0.8c-1.4,0-2.3-0.6-2.3-2.5V491.2z"/>
			<path d="M63.5,499.5h-1.8v-13.9h1.8v6c0.5-1.2,1.8-2,3.2-2c2.5,0,3.5,1.7,3.5,3.9v6h-1.8v-5.8c0-1.6-0.8-2.6-2.3-2.6
				c-1.5,0-2.6,1.1-2.6,2.9V499.5z"/>
			<path d="M81.4,496.2c-0.5,2.2-2.1,3.5-4.5,3.5c-2.9,0-5-1.9-5-4.9c0-3,2.1-5.2,4.9-5.2c3.1,0,4.6,2.2,4.6,4.8v0.7h-7.7
				c0.1,1.9,1.4,3.2,3.1,3.2c1.6,0,2.6-0.8,2.9-2.2L81.4,496.2z M79.5,493.9c-0.1-1.5-0.9-2.9-2.8-2.9c-1.7,0-2.8,1.4-3,2.9H79.5z"
				/>
		</g>
		<g class="st1">
			<path d="M89,491.7c-0.5-0.3-0.9-0.4-1.5-0.4c-1.4,0-2.4,1.3-2.4,3.1v5.1h-1.8v-9.6h1.8v2c0.4-1.1,1.3-2.2,2.7-2.2
				c0.6,0,1,0.2,1.4,0.4L89,491.7z"/>
		</g>
		<g class="st1">
			<path d="M99.1,496.2c-0.5,2.2-2.1,3.5-4.5,3.5c-2.9,0-5-1.9-5-4.9c0-3,2.1-5.2,4.9-5.2c3.1,0,4.6,2.2,4.6,4.8v0.7h-7.7
				c0.1,1.9,1.4,3.2,3.1,3.2c1.6,0,2.6-0.8,2.9-2.2L99.1,496.2z M97.3,493.9c-0.1-1.5-0.9-2.9-2.8-2.9c-1.7,0-2.8,1.4-3,2.9H97.3z"
				/>
		</g>
		<g class="st1">
			<path d="M112.8,497.6c0,0.5,0.3,0.7,0.7,0.7c0.2,0,0.6-0.1,0.8-0.2v1c-0.3,0.3-0.7,0.6-1.5,0.6c-1,0-1.7-0.7-1.8-1.9
				c-0.5,1.1-1.9,2-3.5,2c-1.9,0-3.1-1-3.1-2.7c0-1.8,1.6-2.6,3.9-3l2.6-0.5v-0.4c0-1.3-0.8-2.1-2.1-2.1c-1.4,0-2.1,0.8-2.4,1.9
				l-1.6-0.2c0.4-1.8,1.8-3.1,4.1-3.1c2.4,0,3.9,1.2,3.9,3.7V497.6z M111,494.7l-2.2,0.5c-1.5,0.3-2.5,0.6-2.5,1.8
				c0,0.8,0.5,1.4,1.7,1.4c1.7,0,3-1.3,3-3.2V494.7z"/>
		</g>
		<g class="st1">
			<path d="M116,491.2h-1.5v-1l0.6-0.1c0.9-0.2,1.1-0.6,1.3-1.5l0.3-1.3h1v2.7h2.7v1.3h-2.7v5.8c0,0.9,0.4,1.3,1.2,1.3
				c0.6,0,1.3-0.3,1.8-0.6v1.2c-0.7,0.5-1.4,0.8-2.5,0.8c-1.4,0-2.3-0.6-2.3-2.5V491.2z"/>
		</g>
		<g class="st1">
			<path d="M137.6,489.6c2.5,0,3.4,1.7,3.4,3.9v6h-1.8v-5.8c0-1.6-0.7-2.6-2.1-2.6c-1.4,0-2.5,1.1-2.5,2.9v5.5h-1.8v-5.8
				c0-1.6-0.7-2.6-2.1-2.6c-1.4,0-2.4,1.1-2.4,2.9v5.5h-1.8v-9.6h1.8v1.7c0.5-1.2,1.6-2,3.1-2c1.7,0,2.7,0.8,3.1,2.1
				C134.9,490.5,136.1,489.6,137.6,489.6z"/>
		</g>
		<g class="st1">
			<path d="M144.7,503.2l1.6-3.7l-4-9.6h1.9l3.1,7.4h0.1l2.9-7.4h1.8l-5.5,13.3H144.7z"/>
		</g>
		<g class="st1">
			<path d="M166.1,497.1L166.1,497.1l2.3-7.3h1.7l-3.1,9.6h-1.8l-2-7.2h-0.1l-2,7.2h-1.8l-3.1-9.6h1.8l2.3,7.3h0.1l2-7.3h1.5
				L166.1,497.1z"/>
		</g>
		<g class="st1">
			<path d="M175.7,499.7c-2.8,0-4.9-2.1-4.9-5.1s2.1-5.1,4.9-5.1c2.8,0,4.9,2.1,4.9,5.1S178.6,499.7,175.7,499.7z M175.7,498.3
				c2,0,3.1-1.5,3.1-3.7c0-2.2-1.1-3.7-3.1-3.7c-1.9,0-3,1.5-3,3.7C172.7,496.8,173.8,498.3,175.7,498.3z"/>
		</g>
		<g class="st1">
			<path d="M188.3,491.7c-0.5-0.3-0.9-0.4-1.5-0.4c-1.4,0-2.4,1.3-2.4,3.1v5.1h-1.8v-9.6h1.8v2c0.4-1.1,1.3-2.2,2.7-2.2
				c0.6,0,1,0.2,1.4,0.4L188.3,491.7z"/>
		</g>
		<g class="st1">
			<path d="M190.6,496.1c0.2,1.5,1.2,2.3,2.9,2.3c1.3,0,2.2-0.5,2.2-1.4c0-0.9-0.6-1.2-1.8-1.4l-1.6-0.3c-1.8-0.3-2.9-1.1-2.9-2.7
				c0-1.8,1.5-2.9,3.7-2.9c2.6,0,4,1.2,4.2,3.4l-1.5,0.1c-0.2-1.5-1.1-2.2-2.8-2.2c-1.2,0-2,0.5-2,1.4c0,0.8,0.5,1.2,1.5,1.3
				l1.8,0.3c1.9,0.3,3.1,1.1,3.1,2.8c0,1.9-1.7,2.9-3.9,2.9c-2.4,0-4.2-1.1-4.4-3.5L190.6,496.1z"/>
		</g>
		<g class="st1">
			<path d="M199.6,491.2h-1.5v-1l0.6-0.1c0.9-0.2,1.1-0.6,1.3-1.5l0.3-1.3h1v2.7h2.7v1.3h-2.7v5.8c0,0.9,0.4,1.3,1.2,1.3
				c0.6,0,1.3-0.3,1.8-0.6v1.2c-0.7,0.5-1.4,0.8-2.5,0.8c-1.4,0-2.3-0.6-2.3-2.5V491.2z"/>
		</g>
		<g class="st1">
			<path d="M206.1,497.3h2.2v2.2h-2.2V497.3z"/>
		</g>
		<path d="M181.7,114.4c-5-1.8-6.7-5.3-4.9-11.2l3.2,1.2c-1,3.4,0,5.4,3.3,6.6c2.8,1,5.1,0.3,5.9-2c0.6-1.8,0.1-2.8-2.6-4.8
			l-3.4-2.5c-2.7-2-3.4-4.4-2.3-7.4c1.6-4.5,5.6-6.4,10.1-4.7s6.1,5.2,4.6,10.1l-3.2-1.2c0.8-2.7-0.1-4.5-2.9-5.5
			c-2.5-0.9-4.5-0.2-5.2,1.9c-0.6,1.7-0.2,2.5,2.3,4.4l2.9,2.2c3.5,2.6,4.3,5,3.1,8.2C190.8,114.3,186.6,116.2,181.7,114.4z"/>
		<path d="M201.4,121.6c-2.4-0.9-3.6-2.4-4.1-5.2l-4.4,11.9l-3.2-1.2l12-32.9l3.1,1.1l-1.3,3.5c2.8-2.4,4.8-2.9,7.4-2
			c4.8,1.8,6.2,7.7,3.6,14.8C211.7,119.5,206.4,123.4,201.4,121.6z M209.1,100.1c-3.5-1.3-6.5,1.3-8.9,7.8c-1.9,5.1-1,9,2.3,10.2
			s6.4-1.6,8.6-7.5C213.1,105,212.4,101.3,209.1,100.1L209.1,100.1z"/>
		<path d="M219.8,115.6c-1.9,5.7-0.6,8.5,2.7,9.7c2.6,1,5.6-0.2,6.8-2.7l3.2,1.2c-2.7,4.8-6.9,6.6-11.4,5c-5.5-2-7.2-7.8-4.5-15.3
			c2.9-7.9,8.3-11.6,13.9-9.6c5,1.8,6.8,6.7,3.4,16.8L219.8,115.6z M229.1,107.4c-3.1-1.1-6.4,0.9-8.1,5l10.7,3.9
			C233.1,111.3,232,108.5,229.1,107.4z"/>
		<path d="M240.6,135.9c-5.3-1.9-6.9-7.9-4.2-15.2c2.9-7.9,8.3-11.6,13.9-9.6c4.3,1.6,5.7,5.3,4.2,11.3l-3.2-1.2
			c0.8-3.8-0.1-5.8-2.6-6.7c-3.4-1.2-6.6,1.4-8.7,7.1s-1.4,9.6,1.9,10.8c2.5,0.9,4.7-0.4,6.8-3.8l3.2,1.1
			C248.8,135.5,245,137.5,240.6,135.9z"/>
		<path d="M261.3,111.7l1.6-4.3l3.9,1.4l-1.6,4.3L261.3,111.7z M251.6,139.2l8.6-23.6l3.2,1.2l-8.6,23.6L251.6,139.2z"/>
		<path d="M274.2,148c-2.2-0.8-2.7-2.2-2-4.8c-3.1,1.9-5.5,2.3-8.2,1.3c-3.7-1.4-5.2-5-3.6-9.2s4.6-5.9,8.5-5.2l5.7,1.1
			c1.3,0.3,2.1-0.4,2.7-2.1c0.9-2.6-0.1-4.5-3-5.6s-5-0.4-6.2,2.9l-3-1.1c2-5.6,5.8-6.8,10.6-5c4.6,1.7,6.5,5.2,5,9.3l-5,13.6
			c-0.3,0.9-0.1,1.5,0.5,1.8c0.4,0.1,0.8,0.2,1.2,0.2l-1.1,2.9C275.6,148.2,274.9,148.2,274.2,148z M275.3,134.2
			c-0.9,0.4-1.9,0.3-5.9-0.5c-3.2-0.6-4.7,0.1-5.6,2.4c-0.9,2.5-0.2,4.4,2,5.2c3.1,1.2,6.7-0.3,8-3.4L275.3,134.2z"/>
		<path d="M279,149.2l11.8-32.4l3.2,1.2l-11.8,32.4L279,149.2z"/>
		<path d="M154.5,127.5l-5.6,15.3c-0.5,1.3-0.1,2,1.3,2.6l1.1,0.4l-1.1,3.1c-2.4-0.6-2.3-0.5-2.7-0.6c-2.6-0.9-3.2-3-1.9-6.4
			l5.7-15.6l-2.6-1l1.2-3.3l2.6,1l2.4-6.6l3.2,1.2l-2.4,6.6l3.2,1.2l-1.2,3.3L154.5,127.5z"/>
		<path d="M165.4,154.5l5.6-15.4c1.4-3.7,0.8-5.7-1.8-6.7c-3.5-1.3-6.6,0.9-8.4,5.9l-4.7,12.9l-3.2-1.2l11.8-32.4l3.2,1.2l-4.4,12
			c3-2.2,4.9-2.7,7.4-1.7c4.1,1.5,5.4,5.4,3.5,10.6l-5.9,16L165.4,154.5z"/>
		<path d="M188,163.3c-2.2-0.8-2.7-2.2-2-4.8c-3.1,1.9-5.5,2.3-8.2,1.3c-3.7-1.4-5.2-5-3.6-9.2s4.6-5.9,8.5-5.2l5.7,1.1
			c1.3,0.3,2.1-0.4,2.7-2.1c0.9-2.6-0.1-4.5-3-5.6s-5-0.4-6.2,2.9l-3-1.1c2-5.6,5.8-6.8,10.6-5c4.6,1.7,6.5,5.2,5,9.3l-5,13.6
			c-0.3,0.9-0.1,1.5,0.5,1.8c0.4,0.1,0.8,0.2,1.2,0.2l-1.1,2.9C189.4,163.6,188.7,163.5,188,163.3z M189,149.5
			c-0.9,0.4-1.9,0.3-5.9-0.5c-3.2-0.6-4.7,0.1-5.6,2.4c-0.9,2.5-0.2,4.4,2,5.2c3.1,1.2,6.7-0.3,8-3.4L189,149.5z"/>
		<path d="M205.3,169.1l5.3-14.5c1.6-4.3,1.1-6.7-1.7-7.7c-3.3-1.2-6.4,1-8.2,5.9l-4.7,12.9l-3.2-1.2l8.6-23.6l3.1,1.1l-1.3,3.5
			c2.7-2.3,5-2.9,7.7-1.9c4.1,1.5,5.4,5.4,3.5,10.6l-5.9,16L205.3,169.1z"/>
		<path d="M224.7,176.2l-1.7-14.1l-3.8,2L216,173l-3.2-1.2l11.8-32.4l3.2,1.2l-6.8,18.8l12-6.9l4.1,1.5l-10.6,6.1l2.4,17.7
			L224.7,176.2z"/>
		<path d="M236.9,181.4c-5-1.8-6.7-5.3-4.9-11.1l3.2,1.1c-1,3.4,0,5.4,3.3,6.6c2.8,1,5.1,0.3,5.9-2c0.6-1.8,0.1-2.8-2.6-4.8
			l-3.4-2.5c-2.7-2-3.4-4.4-2.3-7.4c1.6-4.5,5.6-6.4,10.1-4.7s6.1,5.2,4.6,10.1l-3.2-1.1c0.8-2.7-0.1-4.5-2.9-5.5
			c-2.5-0.9-4.5-0.2-5.2,1.9c-0.6,1.7-0.2,2.5,2.3,4.4l2.9,2.2c3.5,2.6,4.3,5,3.1,8.2C246,181.3,241.8,183.2,236.9,181.4z"/>
		<path d="M270.6,170l-5.6,15.3c-0.5,1.3-0.1,2,1.3,2.6l1.1,0.4l-1.1,3.1c-2.4-0.6-2.3-0.5-2.7-0.6c-2.6-0.9-3.2-3-1.9-6.4l5.7-15.6
			l-2.6-1l1.2-3.3l2.6,1l2.4-6.6l3.2,1.2l-2.4,6.6l3.2,1.1l-1.2,3.3L270.6,170z"/>
		<path d="M276.1,195.7c-5.3-1.9-7.1-8.4-4.4-15.7s8.2-11.1,13.7-9.1c5.2,1.9,6.9,8.4,4.3,15.7S281.4,197.7,276.1,195.7z M284,174.3
			c-3.5-1.3-7,1.4-9,6.9s-1.1,9.8,2.3,11s6.9-1.5,8.9-6.9S287.3,175.5,284,174.3z"/>
	</g>
</g>
</svg>
